<svg height="235.280987" viewBox="0 0 88.8924 49.243677" width="425.023719" xmlns="http://www.w3.org/2000/svg" xmlns:xlink="http://www.w3.org/1999/xlink"><clipPath id="a"><path d="m635.41797 524.58594h21.58203v20.41406h-21.58203zm0 0"/></clipPath><clipPath id="b"><path d="m668 524.58594h22v20.41406h-22zm0 0"/></clipPath><clipPath id="c"><path d="m733 529h10.375v16h-10.375zm0 0"/></clipPath><clipPath id="d"><path d="m635.41797 547h12.58203v14h-12.58203zm0 0"/></clipPath><clipPath id="e"><path d="m714 547h29.375v37.30469h-29.375zm0 0"/></clipPath><symbol id="f" overflow="visible"/><symbol id="g" overflow="visible"/><g fill="#545e6b" transform="matrix(.35277778 0 0 .35277778 -101.050722 -140.334471)"><use height="100%" width="100%" x="145.45284" xlink:href="#f" y="559.4483"/><use height="100%" width="100%" x="148.10417" xlink:href="#f" y="559.4483"/></g><g transform="matrix(2.3298942 0 0 2.3298942 -533.40246 -620.90649)"><g clip-path="url(#a)" transform="matrix(.35277778 0 0 .35277778 4.811218 81.467379)"><path d="m656.83984 543.50781c-.21093-.20703-.5625-.19922-.79687-.19531h-.0859c-.35547 0-.69531-.0234-.91797-.33203-.26953-.36328-.26562-1.50781-.26172-1.9961v-12.80468c0-.10547-.004-.23438-.008-.36719-.0156-.54688-.043-1.46094.19141-1.77734.14453-.20704.53515-.1875.84375-.17579l.20703.004c.76562 0 .85156-.49609.85156-.70703 0-.1875-.0547-.33594-.16406-.43359-.17969-.16407-.44531-.14454-.66016-.125l-.16406.0117h-3.05469c-.3164 0-.71094 0-.92187.54297l-5.46875 14.08985c-.87891-2.47657-4.82032-13.57032-4.82032-13.5625l-.0664-.22266c-.11719-.41797-.24219-.84766-.82813-.84766h-3.18359l-.16406-.0117c-.21485-.0195-.48047-.0391-.66016.125-.10937.0976-.16406.24609-.16406.43359 0 .21094.082.70703.85156.70703.61719 0 1.00781.0352 1.16797.20703.17187.1836.17578.59375.12109 1.39844l-.85156 13.64844c-.0859 1.63281-.18359 2.19531-1.50781 2.19531-.78906 0-.90625.375-.90625.59766 0 .25781.10937.5664.6289.5664.40235 0 .81641-.0273 1.21485-.0508.40234-.0273.82031-.0547 1.23047-.0547.40625 0 .82031.0274 1.22265.0547.40625.0234.82813.0508 1.2461.0508.23828 0 .79687 0 .79687-.5664 0-.15235-.0547-.28516-.15234-.38282-.21875-.21875-.59375-.21484-.83985-.21484h-.0508c-.54687 0-.9414-.13281-1.19922-.40625-.51562-.54297-.49609-1.60938-.42187-2.94141l.76562-12.17578c.8711 2.52735 5.25782 15.23828 5.25 15.22266l.008.0273c.0625.25.17578.72266.58984.72266.35547 0 .48047-.36719.5625-.60547l.0312-.0898 5.91406-15.61329v13.58594c.004.53906.0117 1.53516-.35156 1.88281-.26172.2461-.79297.39063-1.16016.39063h-.0859c-.23438-.004-.58594-.0117-.79688.19531-.10547.10156-.16015.23828-.16015.40235 0 .25781.125.5664.71484.5664.53516 0 1.08594-.0273 1.62109-.0508.53907-.0273 1.09766-.0547 1.65235-.0547.43359 0 .8789.0274 1.30859.0547.43359.0234.88281.0508 1.32813.0508.58984 0 .71484-.30859.71484-.5664 0-.16407-.0547-.30079-.16016-.40235" fill="#454f59"/></g><path d="m240.25869 269.87276c-.16536 0-.27698-.19706-.41892-.44648-.2012-.35554-.45062-.79789-.91915-.79789-.3514 0-.74828.22462-.9853.44649-.44649.42995-.71383 1.09692-.71383 1.78318 0 1.08727.70418 2.26274 1.84244 2.26274.44511 0 .83372-.16537 1.12448-.4768l.0193-.022c.0593-.0744.11576-.13505.18328-.13505.0772 0 .13918.0703.13918.15847 0 .062-.0331.17777-.32659.45613-.42168.37759-.94947.57603-1.52825.57603-1.27193 0-2.34818-1.18787-2.34818-2.59347 0-1.51447 1.24437-2.79466 2.71612-2.79466.38034 0 .94809.12126 1.29673.38722.13505.10336.12265.29904.113.45613-.003.0345-.004.0675-.004.0965l.003.0579c.0124.20671.0179.43409-.0772.53606-.0303.0331-.0717.0496-.11576.0496" fill="#454f59"/><g clip-path="url(#b)" transform="matrix(.35277778 0 0 .35277778 4.811218 81.467379)"><path d="m689.57422 543.50781c-.21094-.20703-.5625-.19922-.79688-.19531h-.0859c-.35547 0-.69532-.0234-.91797-.33203-.26953-.36328-.26563-1.50781-.26563-1.9961l.004-.11328v-12.6914c0-.10547-.004-.23438-.008-.36719-.0156-.54688-.043-1.46094.1914-1.77734.14453-.20704.53516-.1875.84375-.17579l.20703.004c.76563 0 .84766-.49609.84766-.70703 0-.1875-.0508-.33594-.16016-.43359-.18359-.16407-.44531-.14454-.66015-.125l-.16407.0117h-3.05468c-.31641 0-.71094 0-.92188.54297l-5.46875 14.08985c-.8789-2.47657-4.82031-13.57032-4.82031-13.5625l-.0664-.22266c-.11718-.41797-.24218-.84766-.82812-.84766h-3.1836l-.16406-.0117c-.21484-.0195-.48047-.0391-.66015.125-.10938.0976-.16407.24609-.16407.43359 0 .21094.082.70703.85157.70703.61718 0 1.00781.0352 1.16796.20703.17188.1836.17579.59375.1211 1.39844l-.85156 13.64844c-.0859 1.63281-.1836 2.19531-1.50782 2.19531-.78906 0-.90625.375-.90625.59766 0 .25781.10938.5664.62891.5664.40234 0 .81641-.0273 1.21484-.0508.40235-.0273.82032-.0547 1.23047-.0547.40235 0 .82031.0274 1.22266.0547.40625.0234.82812.0508 1.24609.0508.23828 0 .79688 0 .79688-.5664 0-.15235-.0547-.28516-.15235-.38282-.21875-.21875-.59375-.21484-.83984-.21484h-.0508c-.54688 0-.94141-.13281-1.19922-.40625-.51563-.54297-.49609-1.60938-.42188-2.94141l.76563-12.17578c.87109 2.52735 5.25781 15.23828 5.25 15.22266l.008.0273c.0625.25.17578.72266.59375.72266.34766 0 .47266-.36719.5586-.60547l.0312-.0898 5.91406-15.61329v13.58594c.004.53906.0117 1.53516-.35547 1.88281-.25781.2461-.78906.39063-1.15625.39063h-.0859c-.23437-.004-.58594-.0117-.80078.19531-.10156.10156-.15625.23828-.15625.40235 0 .25781.125.5664.71484.5664.53516 0 1.08594-.0273 1.6211-.0508.53906-.0273 1.09765-.0547 1.64844-.0547.4375 0 .88281.0274 1.3125.0547.43359.0234.88281.0508 1.32812.0508.58984 0 .71484-.30859.71484-.5664 0-.16407-.0547-.30079-.16015-.40235" fill="#454f59"/></g><path d="m249.72581 271.42168c-.39963.22462-.76756.5016-.76756 1.00459 0 .44235.3445.59944.64216.59944.32246 0 .66146-.16123.90537-.42994.23013-.26321.24116-.43684.24116-.8034v-.67938l.001-.0331c.008-.17088-.01-.21084-.0179-.22049l.011.004h.003l-.0482.0207-.0441.0207.01-.004-.93569.5209m.67662-.75379c.34451-.17777.34451-.17777.34451-.57326v-.49747c0-.59256-.04-.95085-.59118-.95085-.53192 0-.85576.2632-1.12034.90813l-.022.0524c-.0634.15159-.12816.30731-.29628.38999-.10335.0593-.32659.15434-.4644.15434-.13367 0-.19981-.0661-.19981-.20395 0-.31833.24115-.6587.44648-.85301.49747-.49472 1.21956-.80202 1.8824-.80202.44373 0 .77308.10611.97979.31833.23289.21497.22875.49196.22462.7593l-.001.113v2.69131c0 .1819-.001.60771.15296.76205.0386.0372.0827.0565.13643.0565.13091 0 .22048-.0965.29214-.17225.0551-.0593.10335-.11162.16812-.11162.0758 0 .13918.0716.13918.15847 0 .14883-.16812.30593-.25769.39136l-.01.008c-.20946.16261-.48231.34451-.77032.34451-.37069 0-.51952-.36656-.61736-.61047-.0289-.0703-.0675-.16674-.0896-.1819l.0124.003.0152-.003c-.0179.008-.0799.0648-.13504.113-.2701.24253-.83372.74689-1.53652.74689-.49471 0-1.02112-.33486-1.02112-.95911 0-.81304.88883-1.29122 1.47863-1.60817l.0661-.0358.79375-.4079" fill="#454f59"/><path d="m252.67206 272.09692.003-.0165c.01-.0951.0317-.29352.19706-.29352.1819 0 .22462.21773.27147.47129.0882.45613.20809 1.08176 1.07212 1.08176.57189 0 1.18098-.36518 1.18098-1.04318 0-.62562-.48369-.85713-.93844-1.02526l-.0923-.0331c-.64217-.226-1.51998-.53744-1.51998-1.45935 0-.42856.19706-.81166.56913-1.10794.32935-.25631.73863-.38171 1.25126-.38171.26596 0 .81855.0744 1.08038.19155.18052.0951.16674.30179.15572.46715-.003.0372-.004.073-.004.10473l.003.0524c.0165.20119.0276.42581-.0634.52365-.0289.0303-.0661.0482-.10886.0482-.12816 0-.1819-.13505-.24805-.30592-.12678-.32109-.29766-.76068-.99908-.76068-.35691 0-.87505.27423-.87505.7717 0 .56224.49885.74965 1.07487.96738.69453.26183 1.48001.55949 1.48001 1.6068 0 1.18924-1.17408 1.72254-2.0078 1.72254-.34864 0-.96876-.13918-1.33532-.34726-.18052-.0882-.17914-.25356-.17777-.41341l.001-.0551.0303-.76618" fill="#454f59"/><path d="m259.01793 272.86724c0-.0689-.0593-.14745-.13919-.14745-.0524 0-.0965.04-.17776.113-.12954.113-.32522.28525-.55811.28525-.12402 0-.22324-.0372-.30179-.11575-.23289-.23289-.23289-.76895-.23289-1.1231v-2.90078c0-.11161.0193-.15296.0358-.16812.0262-.0248.0882-.022.16674-.0179.0331.001.0689.003.10749.003h.57189c.0413 0 .0786.003.11162.004.0909.004.16261.008.21497-.0413.051-.0496.0579-.12816.0579-.20808 0-.0827 0-.22324-.15985-.22324h-1.00459c-.0827-.006-.10198-.0124-.10198-.15848v-.80615c0-.16812-.0813-.20395-.14883-.20395-.0992 0-.14607.10335-.16398.14332-.22876.53054-.5085.80064-.95085 1.12034l-.0234.0193c-.0524.0427-.12265.10059-.12265.19844 0 .0413.0152.0785.0455.10748.0703.0648.19705.0593.30868.051l.0303-.003h.0648c.0427-.001.0951-.003.10473.007.004.004.0179.0248.0179.13092v2.92282l-.001.16123c-.004.43959-.01.93844.2384 1.28846.17363.23427.46715.37345.78961.37345.35692 0 .70969-.15709.99357-.44235.062-.0496.22738-.21773.22738-.36931" fill="#454f59"/><path d="m260.19201 269.35324c.29352-.45337.76895-.72485 1.27055-.72485.25219 0 .60359.0579.83647.3266.15159.17914.24943.42306.24943.6215 0 .20946-.1006.32797-.32797.38447-.28664.0772-.85439.0882-1.1672.0882h-.82682l-.0496.001c-.0703.003-.17501.006-.21359-.0317l-.0165-.0482c0-.15572.14883-.48783.24529-.61737m3.09783 2.95452c-.0634 0-.11713.0537-.21359.14883-.20671.20533-.59118.58842-1.29811.58842-1.2554 0-1.91272-1.15893-1.91272-2.3027 0-.13781.0152-.21635.0469-.24805.0358-.0372.12265-.0358.25218-.0358h3.14607c.0579 0 .19016-.0248.19016-.26182 0-.38723-.15572-.88333-.37069-1.17961-.34038-.46164-.8971-.72622-1.52411-.72622-.71245 0-1.36426.26734-1.88516.77446-.51814.50023-.74965 1.09829-.74965 1.93752 0 1.50068 1.05007 2.67615 2.38952 2.67615.66973 0 1.18098-.2012 1.65916-.65319l.007-.007c.28525-.27147.41203-.44097.41203-.5526 0-.0896-.0648-.15847-.14883-.15847" fill="#454f59"/><g clip-path="url(#c)" transform="matrix(.35277778 0 0 .35277778 4.811218 81.467379)"><path d="m741.53516 529.73437c-1.54297 0-2.58204 1.41407-3.14063 2.17188-.0781.10937-.16406.22656-.23047.30859-.004-.0664-.008-.16406 0-.30468l.004-.0859v-1.6211c0-.15625.004-.36328-.13672-.50781-.0547-.0547-.15234-.12109-.31641-.12109-.27343 0-.44922.22265-.57812.3789l-.0937.11719c-.45703.59766-1.66797 1.39453-2.31641 1.60156l-.11328.0391c-.25391.082-.67578.21875-.67578.68359 0 .27344.21094.44922.53906.44922h.375c.33985 0 .60156.0703.69922.19141.24609.27343.24219 1.4375.23828 1.82031v6.13281c0 .17969.004.35547.008.52344.0312 1.21094-.004 1.79687-1.13671 1.91406l-.14844.0117c-.29297.0117-.83594.0391-.83594.63281 0 .32422.22266.51563.59766.51563.44922 0 .91406-.0234 1.36328-.0469.45312-.0234.92578-.0469 1.38281-.0469.42188 0 .85156.0195 1.30469.043.46484.0273.9414.0508 1.41406.0508.33594 0 .54297-.21094.54297-.54688 0-.53906-.55859-.57812-.85547-.60156l-.12891-.0117c-1.13281-.11719-1.16796-.70312-1.14062-1.91406.008-.16797.0117-.34375.0117-.52344v-5.21484c0-1.19141-.004-1.97657.6289-2.96875.3086-.42969.77344-1.07813 1.32032-1.07813.27734 0 .4375.1875.67578.49219.25.32422.5664.73047 1.17578.73047.82812 0 1.41016-.60938 1.41016-1.48047 0-.98828-.79297-1.73438-1.84375-1.73438" fill="#454f59"/></g><g clip-path="url(#d)" transform="matrix(.35277778 0 0 .35277778 4.811218 81.467379)"><path d="m644.88281 550.91797v-.0937c.004-.41016.004-1.35938-.16015-1.66406-.15235-.3086-.45704-.33204-.83985-.33204h-.0273c-.13281 0-.35938.004-.50391-.14062-.0508-.0508-.11328-.14453-.11328-.29297 0-.11719.0391-.22266.11719-.30078.0977-.0977.24609-.14844.42578-.14844.26172 0 .51953.0195.77344.043.24218.0156.49609.0352.73828.0352.21094 0 .41797-.0156.64062-.0352.21875-.0234.44532-.043.67188-.043.49219 0 .54687.30469.54687.4336 0 .29687-.24609.44921-.73047.44921-.63281 0-.66015.3125-.67578 1.08204 0 .0976-.004.19921-.008.30468v5.83203c0 1.16016 0 2.16016-.98437 3.11329-.73438.70312-1.8086 1.04687-3.28907 1.04687-.80078 0-2.28515-.11719-3.25-.90625-1.0664-.8125-1.0664-1.94531-1.0625-3.14062v-6.21094c0-.5.004-.82813-.13281-.96485-.10937-.10937-.34375-.15625-.76953-.15625-.40625 0-.61328-.14453-.61328-.43359 0-.13672.043-.24609.12109-.32422.082-.082.19922-.125.35547-.125.32813 0 .64844.0195.95703.0391.30078.0195.61719.0391.92969.0391.31641 0 .63672-.0195.94922-.0391.3164-.0195.64453-.0391.96875-.0391.29297 0 .47656.17188.47656.44922 0 .28906-.21094.43359-.62891.43359-.42187 0-.66015.0469-.76562.15625-.13672.13672-.13672.46485-.13281.96485v5.68359c-.004.79688-.008 2.00391.32812 2.60547.56641 1.03516 2.09766 1.11719 2.55469 1.11719.64453 0 1.83984-.125 2.57812-.94922.5586-.63672.55469-1.40234.55469-2.28516zm0 0" fill="#454f59"/></g><g fill="#454f59"><path d="m236.22242 278.75008-.0248-.001c-.20671-.022-.21498-.11162-.20809-.36656.001-.0344.001-.0703.001-.10748v-1.09692c.001-.3073.001-.62563-.18879-.89848-.17776-.25219-.43132-.38034-.75516-.38034-.40377 0-.69316.27423-.86541.43821l-.04.0372v-.31281c0-.0386 0-.0923-.0372-.12954-.0138-.0152-.0413-.0331-.0841-.0331-.0703 0-.113.0537-.14056.0882l-.0193.0248c-.0882.11576-.33211.27699-.46027.31833l-.0234.008c-.0551.0179-.15848.051-.15848.16813 0 .0716.0565.11989.13919.11989h.0772c.0717 0 .11024.0165.12127.0303.0207.0221.0441.10197.0427.35553v1.26229c0 .0372.001.073.001.10886.007.25494-.001.34313-.20809.36518l-.0289.001c-.0592.003-.19706.01-.19706.1571 0 .062.0386.13367.15021.13367.0937 0 .19017-.007.2825-.0138.0923-.007.18741-.0138.27974-.0138.0841 0 .17225.006.2632.0138.0965.007.19431.0138.29352.0138.0854 0 .13919-.0551.13919-.14056 0-.13505-.14056-.14607-.2012-.15021l-.0262-.001c-.20533-.022-.2136-.11024-.20809-.36518.001-.0358.003-.0717.003-.10886v-1.10933c0-.25907.0152-.38309.17363-.56499.1447-.16812.33486-.26045.53606-.26045.21497 0 .40239.0992.50023.26458.0965.16261.0965.41479.0965.61874v1.05145c0 .0372.001.073.003.10748.006.25494-.003.34451-.20808.36656l-.0289.001c-.0592.003-.19844.01-.19844.1571 0 .062.04.13367.15021.13367.0937 0 .19017-.007.28388-.0138.0909-.007.18741-.0138.27974-.0138.0841 0 .17088.006.26321.0138.0951.007.1943.0138.29352.0138.0841 0 .1378-.0551.1378-.14056 0-.13505-.14056-.14607-.20119-.15021"/><path d="m237.69003 278.27466c0 .0372 0 .073-.001.10887-.007.25493.001.34313.20808.36518l.0248.001c.0606.004.20257.0152.20257.15158 0 .0841-.0551.13919-.13918.13919-.0992 0-.19844-.007-.29352-.0138-.0923-.008-.17915-.0138-.26321-.0138-.0923 0-.18879.007-.27974.0138-.0937.007-.18879.0138-.2825.0138-.11162 0-.15158-.0717-.15158-.13368 0-.14744.13918-.15434.19844-.15709l.0289-.001c.20533-.0221.2136-.11025.20809-.36518-.001-.0358-.003-.0717-.003-.10887v-1.24023l.001-.022c0-.25356-.0234-.33349-.0427-.35554-.011-.0152-.0496-.0303-.12127-.0303h-.0772c-.0827 0-.13918-.0482-.13918-.11989 0-.11713.10198-.1502.15847-.16812l.022-.008c.12816-.0413.37345-.20257.46027-.31832l.0193-.0248c.0289-.0345.0717-.0882.14194-.0882.0427 0 .0689.0179.0841.0331.0372.0372.0372.091.0358.12953zm-.59669-3.19843c0-.22324.14607-.39687.33486-.39687.19844 0 .31695.1943.31695.38309 0 .23841-.13229.39826-.32935.39826-.18742 0-.32246-.16261-.32246-.38448"/><path d="m241.28946 276.00779-.0951-.0262-.0179.001h-.87368c-.0386 0-.1571 0-.1571.1254 0 .13918.17226.13918.22876.13918.0386 0 .16398.008.16398.11025 0 .0524-.0331.14883-.0551.21221l-.0179.0524c.001-.004-.45888 1.11759-.63389 1.5434-.15297-.41754-.54708-1.49241-.54708-1.49241l-.008-.0221c-.0262-.0717-.0827-.21911-.0827-.28663 0-.0923.0965-.11714.15296-.11714h.0193c.051.003.12953.007.17776-.04.0248-.0221.0372-.0524.0372-.0868 0-.0427-.0124-.0758-.0372-.1006-.04-.0386-.0937-.0386-.13229-.0372h-1.09554c-.0331-.001-.0772-.001-.11162.0317-.022.022-.0331.0537-.0331.0937 0 .0923.0606.13918.17638.13918.18879.01.2136.0813.29077.29628l.0165.0441.86127 2.31648.0344.0827c.0179.0661.0634.10887.11714.10887.0813 0 .12402-.0992.15158-.16537l.007-.0179.003-.004.003-.005.85025-2.04776c.011-.0303.0234-.062.0372-.0937.0882-.22738.18879-.48507.3955-.51539l.0165-.001c.0524-.005.19017-.0207.19017-.1502l-.0317-.0868"/><path d="m242.11353 276.56314c.16537-.25632.4327-.40928.71383-.40928.14193 0 .33624.0317.46439.18052.0841.0992.13918.23427.13918.34313 0 .11025-.0496.16812-.1695.19844-.16398.0441-.49057.0496-.6711.0496h-.47955l-.0303.001-.10335-.011-.001-.008c0-.0841.0841-.27147.1378-.34451m1.77629 1.67983c-.0496 0-.0854.0358-.14469.0951-.11713.11852-.33486.33625-.73312.33625-.71106 0-1.08313-.66284-1.08313-1.31741 0-.0965.0124-.12127.0193-.12678.0124-.0124.0703-.0124.12678-.011h1.82728c.0317 0 .13781-.0138.13781-.17915 0-.23151-.0923-.52641-.22049-.70418-.20395-.27698-.53468-.43546-.90813-.43546-.42168 0-.80753.15848-1.11483.45889-.31006.29903-.44786.65319-.44786 1.14928 0 .89022.62425 1.5875 1.41938 1.5875.39825 0 .70142-.11851.98805-.3886.21911-.20947.24942-.29077.24942-.34314 0-.0675-.051-.12126-.11575-.12126"/><path d="m246.01062 275.93751c-.32797 0-.54432.29076-.66283.45062v-.32798c.001-.0386.001-.091-.0358-.12815-.0152-.0152-.0413-.0331-.0841-.0331-.0703 0-.113.0537-.14056.0882l-.0207.0248c-.0868.11575-.33211.27698-.46027.31832l-.0221.008c-.0551.0179-.15847.051-.15847.16812 0 .0717.0565.11989.13918.11989h.0772c.0717 0 .11024.0165.12127.0303.0193.022.0427.10198.0427.35554v1.26228c0 .0372 0 .073.001.10887.007.25493-.003.34313-.20809.36518l-.0289.001c-.0592.003-.19705.01-.19705.15709 0 .062.0386.13367.1502.13367.0937 0 .19017-.007.2825-.0138.0923-.007.18741-.0138.27974-.0138.0841 0 .17088.007.26321.0124.0951.008.1943.0152.29352.0152.0841 0 .1378-.0551.1378-.13918 0-.13643-.14056-.14607-.19981-.15159l-.0262-.001c-.2067-.022-.21497-.11024-.20808-.36518.001-.0358.001-.0717.001-.10886v-1.0735c0-.24529 0-.39412.12402-.58842.0593-.0841.15021-.20946.24805-.20946.0427 0 .0703.0317.11575.0896.0524.0675.12403.16123.26321.16123.18741 0 .31695-.1378.31695-.3321 0-.21911-.17364-.38448-.40515-.38448"/><path d="m246.66244 278.14237.001-.008c.007-.0593.0207-.19707.14331-.19707.12816 0 .15572.1447.18466.29628.051.27148.11575.60772.59255.60772.31971 0 .66008-.20257.66008-.57878 0-.31281-.20257-.44924-.52778-.56913l-.0524-.0193c-.37896-.13505-.90124-.31833-.90124-.87643 0-.25908.11714-.48921.339-.66698.19706-.15572.44097-.23151.74552-.23151.1571 0 .48507.0455.64079.11714.12264.0648.11437.19981.10748.29903l-.003.0593.003.0275c.01.12402.0152.26183-.0441.32659-.0234.0248-.0538.0372-.0854.0372-.0951 0-.13229-.0951-.17226-.19568-.0703-.17914-.16536-.42443-.55397-.42443-.19706 0-.48093.1502-.48093.4203 0 .3073.2825.41341.60909.53743.41203.15572.87919.33211.87919.96049 0 .6463-.6091 1.03215-1.19752 1.03215-.2067 0-.57326-.0841-.78823-.2067-.11989-.0593-.11852-.16812-.11714-.26596v-.0303l.0179-.45062"/><path d="m249.88291 275.46071c.19706 0 .32935-.15985.32935-.39826 0-.18879-.11851-.38309-.31695-.38309-.18741 0-.33486.17363-.33486.39687 0 .22187.13642.38448.32246.38448"/><path d="m250.38865 278.75008-.0248-.001c-.20533-.022-.21498-.11024-.20809-.36518.001-.0358.001-.0717.001-.10886v-2.21313c.001-.0386.001-.0923-.0358-.12954-.0152-.0152-.0413-.0331-.0854-.0331-.0689 0-.11162.0537-.13918.0882l-.0207.0248c-.0868.11576-.3321.27699-.46026.31833l-.022.008c-.0551.0179-.15847.051-.15847.16813 0 .0716.0565.11989.13918.11989h.0772c.0717 0 .11024.0165.12127.0303.0193.0221.0441.10197.0427.35553v1.26229c0 .0372 0 .073.001.10886.006.25494-.001.34313-.20809.36518l-.0289.001c-.0593.003-.19844.01-.19844.1571 0 .062.04.13367.15158.13367.0937 0 .1888-.007.2825-.0138.0923-.007.18741-.0138.27974-.0138.0841 0 .17226.006.26321.0138.0951.007.1943.0138.29352.0138.0841 0 .13918-.0551.13918-.14056 0-.13505-.14194-.14607-.20257-.15021"/><path d="m252.37027 278.59299c0-.0537-.0441-.11438-.10887-.11438-.04 0-.0717.0276-.12264.073-.0717.0634-.18052.15985-.30455.15985-.0648 0-.11437-.0193-.15434-.0593-.12816-.12815-.12816-.4327-.12816-.63527v-1.69085c0-.0648.0124-.0772.0124-.0786l.0758-.003.0634.003h.33211l.0634.001c.0579.003.10749.005.14607-.0317.0372-.0358.0427-.0896.0427-.14056 0-.0441 0-.15847-.12127-.15847h-.58153l-.0262-.006c-.003-.004-.007-.0165-.007-.0592v-.46716c0-.13367-.0799-.14745-.11437-.14745-.0758 0-.11024.0744-.12127.1006-.12953.30179-.28939.45613-.54432.63941l-.0124.011c-.0331.0276-.0813.0675-.0813.13781 0 .0331.0124.062.0358.0841.0482.0455.12954.0427.19982.0372l.0152-.001.0386-.001h.0386l.004.0524v1.70463l-.001.0937c-.003.26045-.006.55535.14331.76757.10611.14469.28526.23151.48094.23151.21497 0 .42581-.0951.59669-.26597.0413-.0345.14056-.1378.14056-.23702"/><path d="m255.50255 275.98298h-.94258c-.0827 0-.1502.0675-.1502.15159 0 .113.14331.113.20394.113.16399 0 .24667.0565.24667.1695 0 .062-.0455.17225-.073.2384l-.006.0138c0 .001-.43407 1.12586-.60082 1.55856-.16398-.44097-.60082-1.60266-.60082-1.60266l-.004-.0138c-.0275-.073-.062-.16537-.062-.23289 0-.12816.21084-.13091.23427-.13091.13918 0 .20946-.0386.20946-.113 0-.1006-.0758-.15159-.1502-.15159h-1.14377c-.10611 0-.18053.062-.18053.15159 0 .113.14745.113.20946.113.14745 0 .20809.13918.28388.35277l.0262.0717.78272 2.05879.0262.0703c.0248.0634.0524.13505.0524.19155 0 .0469-.0152.0882-.0344.13642l-.0138.0372-.20119.52228-.0179.0482c-.0289.0813-.051.13643-.0951.14745-.0593.0138-.13229.0138-.19706.0124h-.0482c-.25769 0-.25769.22738-.25769.32522 0 .0841.0234.15021.0703.19844.0827.0813.21222.0813.31695.0813h.0124c.25907 0 .29077-.0717.3514-.29628l.003-.0124 1.19063-3.1309c.051-.13092.20533-.53193.31832-.69178.051-.073.16123-.11851.20947-.12402l.0289-.003c.0593-.006.15986-.0152.15986-.10198 0-.0951-.0634-.15847-.1571-.15847"/></g><g clip-path="url(#e)" transform="matrix(.35277778 0 0 .35277778 4.811218 81.467379)"><path d="m728.57812 584.21875c-8.29687-2.56641-13.32031-10.89453-13.76171-15.92188-.004-.0703-.008-.0898-.008-19.64453v-1.41015h28.35547v20.93359c-.4375 5.08203-5.46094 13.48047-13.75 16.04297l-.40234.0898zm0 0" fill="#fff"/></g><path d="m266.68395 274.77031h-9.45472v.24942c0 4.57096 0 6.89571.001 6.90811.14883 1.70326 1.85897 4.52823 4.67982 5.40053l.0441.0138.0152.004.0152.006.0152-.006.0138-.004.0441-.0138c2.81946-.8723 4.52686-3.70692 4.67568-5.42258v-7.13548zm0 0" fill="#454f59"/><path d="m262.00137 275.74458h1.57648v1.49104h-1.2926s-.0965-.21222-.28663-.20947c-.18466.001-.2825.20947-.2825.20947h-1.2926v-1.49104z" fill="#730030" stroke="#730030" stroke-width=".048331"/><path d="m261.97106 277.59391h4.51307v4.31326c-.12953 1.48277-1.67293 4.30912-4.49929 5.18418-2.82636-.87506-4.37665-3.70141-4.50619-5.18418v-4.31326h4.51446zm0 0" fill="#fab83a" stroke="#fab83a" stroke-width=".048331"/><path d="m258.96969 277.19152h.11025c-.0331-.0234-.0951-.0524-.0992-.16123-.007-.16261.0317-.28939.0317-.28939l.39137.0331-.0772-.12402.40652-.38585-.11025-.0344.0703-.27561-.25356.0537-.0455-.12678-.17777.20258.0469-.4768-.14607.11988-.17088-.3321-.17088.3321-.14469-.11988.0469.4768-.17777-.20258-.0455.12678-.25356-.0537.0703.27561-.11162.0344.4079.38585-.0786.12402.39274-.0331s.0413.12816.0317.28939c-.007.10886-.0661.1378-.0992.16123zm0 0" fill="#fab83a" stroke="#fab83a" stroke-width=".048331"/><path d="m264.97105 277.19152h-.11024c.0331-.0234.0951-.0524.0992-.16123.007-.16261-.0317-.28939-.0317-.28939l-.39274.0331.0786-.12402-.4079-.38585.113-.0344-.0717-.27561.25356.0537.0455-.12678.17777.20258-.0469-.4768.14607.11988.17088-.3321.17087.3321.1447-.11988-.0469.4768.17777-.20258.0455.12678.25355-.0537-.0703.27561.11163.0344-.4079.38585.0786.12402-.39275-.0331s-.0413.12816-.0317.28939c.007.10886.0661.1378.0992.16123zm0 0" fill="#fab83a" stroke="#fab83a" stroke-width=".048331"/><path d="m262.00138 276.8732c.17914-.1888.6711.10748.83647.12815.0799.01.47542.006.47542.006v-1.48966l-.19155-.001s-.28112.0138-.42581-.0455c-.1447-.0592-.51952-.19155-.69453.0689-.17501-.26045-.55122-.12815-.69591-.0689-.14469.0593-.42444.0455-.42444.0455l-.19292.001v1.48966s.3955.004.47542-.006c.16537-.0207.6587-.31695.83785-.12815" fill="#fab83a"/><path d="m262.00137 276.8732c.17915-.18879.67111.10749.83647.12816.0799.01.47543.006.47543.006v-1.48966l-.19155-.001s-.28112.0138-.42582-.0455c-.14469-.0593-.51952-.19155-.69453.0689-.17501-.26045-.55121-.12816-.69591-.0689-.14469.0592-.42443.0455-.42443.0455l-.19293.001v1.48966s.3955.004.47543-.006c.16536-.0207.6587-.31695.83784-.12816zm0 0" fill="none" stroke="#fab83a" stroke-width=".048331"/><path d="m261.95039 276.83599.051.0372.0482-.0358v-1.35875l-.0482.0606-.051-.0606zm0 0" fill="#730030" stroke="#730030" stroke-width=".048331"/><path d="m261.36886 279.44186s.45751.0303.49334-.36242c0 0 .0358.29489.1254.29627.10335-.001.10335-.3073.10335-.3073.1571.41893.55259.44648.55259.44648-.3321-.22875-.31419-.84198-.31006-.88883.0193-.3073.28388-.27836.30455-.46026.0276-.25218-.2756-.19844-.2756-.19844s.12815.001.15158.0634c.0551.14469-.19293.16123-.19293.16123-.30179.0786-.40514-.1006-.514-.12127-.11025-.0193-.12954.0524-.15297.0786-.0234.0262-.4892.0524-.58566.15572-.11163.11713-.0992.25493-.0234.34175 0 0 .0427-.16399.21911-.1695.17088-.007.46853.22187.53468.35554-.0744.004-.74001.0469-.82682-.0165-.0551-.0413-.11714-.12402-.11438-.17776 0 0-.0345.17087.0455.22461.0799.0551.10473.0455.15296.0482.0468.003.69039-.0165.75792-.0165-.0152.0482 0 .17226-.14056.18466h-.53055s-.0152.13367.19155.0758c.0427-.0124.1819-.0496.22462.0248.0276.0496.12127.21635-.19017.26183" fill="#730030"/><path d="m261.36886 279.44186s.45751.0303.49334-.36242c0 0 .0358.2949.1254.29628.10335-.001.10335-.30731.10335-.30731.1571.41893.5526.44649.5526.44649-.33211-.22876-.3142-.84198-.31006-.88884.0193-.3073.28387-.27836.30454-.46026.0276-.25218-.2756-.19844-.2756-.19844s.12815.001.15158.0634c.0551.1447-.19292.16123-.19292.16123-.30179.0786-.40515-.10059-.51401-.12127-.11025-.0193-.12954.0524-.15296.0786-.0234.0262-.48921.0524-.58567.15572-.11162.11713-.0992.25494-.0234.34176 0 0 .0427-.16399.21911-.1695.17088-.007.46853.22186.53468.35553-.0744.004-.74001.0469-.82682-.0165-.0551-.0413-.11714-.12402-.11438-.17776 0 0-.0345.17087.0455.22462.0799.0551.10474.0455.15297.0482.0468.003.69039-.0165.75792-.0165-.0152.0482 0 .17226-.14056.18466h-.53055s-.0152.13367.19155.0758c.0427-.0124.1819-.0496.22462.0248.0276.0496.12127.21635-.19017.26182zm0 0" fill="none" stroke="#730030" stroke-width=".048331"/><path d="m261.71199 284.06793c-.18879.12265-.5085.0193-.5085.0193s.007.0882-.27974.20946c-.42995.18053-.88194.63666-.29076 1.30087 0 0-.24529-.75654.13367-.93293 0 0 .32935.32246.80615-.31695.0951-.12954.13918-.27974.13918-.27974" fill="#730030"/><path d="m261.71199 284.06794c-.18879.12264-.50849.0193-.50849.0193s.007.0882-.27975.20946c-.42994.18052-.88194.63665-.29076 1.30087 0 0-.24529-.75654.13367-.93293 0 0 .32935.32246.80615-.31695.0951-.12954.13918-.27974.13918-.27974zm0 0" fill="none" stroke="#730030" stroke-width=".048331"/><path d="m260.64401 281.40419c-.0152.19568-.0441.20394-.22324.29214 0 0-.0703-.0661-.10611-.13367-.11024-.2136.0758-.52917.0758-.52917-.20257.24943-.49609.16537-.49609.16537.022-.21222.3073-.40652.3073-.40652-.26321.0496-.46991-.0951-.46991-.0951.073-.13918.35002-.31281.35002-.31281-.26734-.0179-.45475-.18466-.45475-.18466.0799-.11438.38034-.26321.38034-.26321-.14332-.0854-.28526-.33486-.28526-.33486.20395-.11024.4396-.0854.4396-.0854-.37759-.27698.0303-1.03077.0303-1.03077-.0579 1.13826.81993.84198.75241 1.42214-.0565.4768-.57464.12678-.57464.12678-.091.66421.28938.72622.28938.72622s-.0193.15986-.0248.32935c-.007.20533.0165.21911.01.3142" fill="#730030"/><path d="m260.64401 281.40419c-.0152.19568-.0441.20395-.22324.29214 0 0-.0703-.0661-.10611-.13367-.11024-.21359.0758-.52916.0758-.52916-.20257.24942-.49609.16536-.49609.16536.022-.21222.3073-.40652.3073-.40652-.2632.0496-.46991-.0951-.46991-.0951.073-.13919.35002-.31282.35002-.31282-.26734-.0179-.45475-.18466-.45475-.18466.0799-.11437.38034-.2632.38034-.2632-.14332-.0854-.28526-.33486-.28526-.33486.20395-.11025.4396-.0854.4396-.0854-.37758-.27699.0303-1.03078.0303-1.03078-.0579 1.13826.81993.84199.7524 1.42214-.0565.4768-.57464.12678-.57464.12678-.0909.66421.28939.72623.28939.72623s-.0193.15985-.0248.32935c-.007.20532.0165.2191.01.31419zm0 0" fill="none" stroke="#730030" stroke-width=".048331"/><path d="m259.48784 283.05921c1.20854-.0289 1.42489-.94533 1.42489-.94533-.11576-.1695-.13643-.2577-.13643-.2577l-.0179-.0496c-.0813.0868-.38585.19982-.38585.19982s-.17501-.15159-.21911-.21497c-.11713-.1695-.13505-.29215-.13505-.29215-.20532.005-.39274-.17363-.39274-.17363-.0124-.18742.0648-.34451.0648-.34451-.14469-.0675-.29628-.21635-.29628-.21635.0992-.20671.16261-.27423.16261-.27423-.23289-.18053-.24115-.29077-.24115-.29077.0579-.1571.27009-.31006.27009-.31006-.091-.12265-.17777-.36105-.17777-.36105.16812-.16812.32935-.2191.32935-.2191-.0248-.0951-.0193-.18604-.0124-.28663 0 0-1.38631-.7221-1.53927-1.18925 0 0-.0648.41479-.0386.68213.0234.2384.39274.627 1.28432 1.2237-.54708-.0841-1.29673-.37759-1.46071-.67111 0 0-.003.42582.0923.678.0772.20395.46439.35002 1.33807.77997-.43133.23702-1.19614-.0262-1.41524-.24667 0 0 .12126.37069.26458.59806.091.1447.45337.38586 1.29535.26183-.31281.38861-.91226.68213-1.31878.49748 0 0 .0413.36931.28801.4768.18328.0799.56775.13091 1.18236-.34451-.37069.91639-1.27331.63665-1.27331.63665s.21359.36518.45062.49196c.21084.11162.6463.022 1.35185-.74552 0 0-.0441.67937-.73862.90675" fill="#730030"/><path d="m259.48783 283.05921c1.20854-.0289 1.4249-.94533 1.4249-.94533-.11576-.1695-.13643-.25769-.13643-.25769l-.0179-.0496c-.0813.0868-.38585.19981-.38585.19981s-.17501-.15158-.2191-.21497c-.11714-.1695-.13505-.29215-.13505-.29215-.20533.006-.39274-.17363-.39274-.17363-.0124-.18741.0648-.34451.0648-.34451-.1447-.0675-.29628-.21635-.29628-.21635.0992-.20671.16261-.27423.16261-.27423-.23289-.18052-.24116-.29077-.24116-.29077.0579-.15709.27009-.31005.27009-.31005-.091-.12265-.17776-.36105-.17776-.36105.16812-.16812.32935-.21911.32935-.21911-.0248-.0951-.0193-.18603-.0124-.28663 0 0-1.38631-.72209-1.53927-1.18925 0 0-.0648.41479-.0386.68213.0234.2384.39274.62701 1.28433 1.2237-.54708-.0841-1.29673-.37758-1.46072-.67111 0 0-.003.42582.0923.678.0772.20395.4644.35002 1.33808.77997-.43133.23702-1.19614-.0262-1.41525-.24667 0 0 .12127.37069.26459.59807.091.14469.45337.38585 1.29535.26183-.31281.3886-.91226.68213-1.31878.49747 0 0 .0413.36931.28801.4768.18328.0799.56775.13091 1.18236-.34451-.3707.9164-1.27331.63665-1.27331.63665s.21359.36518.45062.49196c.21084.11162.6463.022 1.35185-.74552 0 0-.0441.67938-.73863.90675zm0 0" fill="none" stroke="#730030" stroke-width=".048331"/><path d="m261.04502 282.3633s.23702.33348.31144.55397c0 0-.46992.40514-.38586.85025 0 0-.15847-.32246-.0496-.56775l.0593-.15985s-.40652.1943-.67524.0496c0 0 .28939.0331.6091-.47267.17087-.2701.13091-.25356.13091-.25356" fill="#730030"/><path d="m261.04501 282.3633s.23703.33348.31144.55397c0 0-.46991.40514-.38585.85025 0 0-.15847-.32246-.0496-.56775l.0593-.15986s-.40652.19431-.67524.0496c0 0 .28939.0331.60909-.47266.17088-.2701.13091-.25356.13091-.25356zm0 0" fill="none" stroke="#730030" stroke-width=".048331"/><path d="m259.48232 283.73307c-.0551.003-.26734-.0744-.32246.0854-.0634.18741.15434.27009.27975.16123.13504-.11713.34175-.11438.38998-.0317.022.0386.051.12127-.13229.25907-.0565.0441-.36243.23289-.14883.43546.073.0675.27147.04.32246-.23564.0372-.20671.1006-.31144.17639-.34589.0386-.0179.16261-.0537.22875.001l.0606.0469c.11024.073.24804-.0138.21911-.13367-.0331-.1378-.14057-.10473-.21911-.0661-.0579.0289-.13229.004-.13229.004-.0524-.0262-.0689-.0854.0165-.12678.36932-.17501.44097-.37758.44097-.37758-.17638.0207-.32384-.0331-.32384-.0331s-.3321.44373-.58428.3266c-.0813-.0386-.113-.17226-.11438-.23427-.003-.13229-.14883-.20119-.22875-.10749-.0772.0896.011.18329.0896.2136.0469.0193.11851.0799.0896.12678-.0289.0469-.0703.0289-.10749.0317" fill="#730030"/><path d="m259.48232 283.73307c-.0551.003-.26734-.0744-.32246.0854-.0634.18741.15434.27009.27974.16123.13505-.11714.34176-.11438.38999-.0317.022.0386.051.12127-.13229.25907-.0565.0441-.36243.23289-.14883.43546.073.0675.27147.04.32246-.23564.0372-.20671.1006-.31144.17639-.34589.0386-.0179.16261-.0537.22875.001l.0606.0469c.11024.073.24804-.0138.2191-.13367-.0331-.1378-.14056-.10473-.2191-.0661-.0579.0289-.1323.004-.1323.004-.0524-.0262-.0689-.0854.0165-.12678.36932-.17501.44097-.37758.44097-.37758-.17639.0207-.32384-.0331-.32384-.0331s-.3321.44373-.58428.32659c-.0813-.0386-.113-.17225-.11438-.23426-.003-.1323-.14883-.2012-.22876-.10749-.0772.0896.011.18328.0896.21359.0469.0193.11851.0799.0896.12678-.0289.0469-.0703.0289-.10749.0317zm0 0" fill="none" stroke="#730030" stroke-width=".048331"/><path d="m259.35417 283.24662s-.0675.0303-.0772.0923c0 0-.12954-.0965-.22049.0551 0 0 .0248-.24253.29766-.14745" fill="#730030"/><path d="m259.35417 283.24662s-.0675.0303-.0772.0923c0 0-.12954-.0965-.22049.0551 0 0 .0248-.24253.29766-.14745zm0 0" fill="none" stroke="#730030" stroke-width=".048331"/><path d="m259.03584 283.86399s-.0303.0675.0289.16812c0 0-.16537.0606-.0551.27147 0 0-.24116-.23013.0262-.43959" fill="#730030"/><path d="m259.03584 283.86398s-.0303.0675.0289.16812c0 0-.16536.0606-.0551.27147 0 0-.24116-.23013.0262-.43959zm0 0" fill="none" stroke="#730030" stroke-width=".048331"/><path d="m259.3707 284.59986s-.004.0744.0868.14607c0 0-.13367.11575.0427.27423 0 0-.30455-.13091-.12954-.4203" fill="#730030"/><path d="m259.3707 284.59986s-.004.0744.0868.14607c0 0-.13367.11576.0427.27423 0 0-.30455-.13091-.12954-.4203zm0 0" fill="none" stroke="#730030" stroke-width=".048331"/><path d="m260.66744 284.10376c.0441.0179.0827.062.0648.18052 0 0 .16261-.16812-.0606-.29765l-.0234-.0124s.0248.0703-.0124.11988l.0317.01" fill="#730030"/><path d="m260.66744 284.10377c.0441.0179.0827.062.0648.18052 0 0 .1626-.16812-.0606-.29766l-.0234-.0124s.0248.0703-.0124.11989zm0 0" fill="none" stroke="#730030" stroke-width=".048331"/><path d="m263.28709 284.09274c-.0441.0179-.0813.062-.0648.18052 0 0-.16261-.16812.0606-.29766l.0234-.0124s-.0248.0703.0124.11989l-.0317.01" fill="#730030"/><path d="m263.28709 284.09274c-.0441.0179-.0813.062-.0648.18053 0 0-.16261-.16812.0606-.29766l.0234-.0124s-.0248.0703.0124.11989zm0 0" fill="none" stroke="#730030" stroke-width=".048331"/><path d="m261.98898 279.72022c.11575-.0344.16949-.11851.16949-.11851.0785.10198.3142.15847.4272.16674.27698.72485.87367 1.16445.32108 2.14561-.5774 1.02526-.99495 1.16444-.19017 1.86586 0 0-.51401.14332-.6339-.30179 0 0 .0262.49058-.0937.62012-.11989-.12954-.0965-.61323-.0965-.61323-.11989.44511-.63389.3018-.63389.3018.80477-.70143.38723-.84061-.1888-1.86587-.55397-.98254.0482-1.42351.32384-2.14836.12678-.0124.339-.0661.43408-.16812 0 0 .0441.0827.16124.11575" fill="#730030"/><path d="m261.98897 279.72022c.11576-.0344.1695-.11851.1695-.11851.0785.10198.31419.15848.42719.16674.27699.72485.87368 1.16445.32108 2.14561-.57739 1.02526-.99494 1.16444-.19016 1.86586 0 0-.51401.14332-.6339-.30179 0 0 .0262.49058-.0937.62012-.11989-.12954-.0965-.61323-.0965-.61323-.11989.44511-.6339.30179-.6339.30179.80478-.70142.38723-.8406-.18879-1.86586-.55397-.98254.0482-1.42351.32384-2.14836.12678-.0124.339-.0661.43408-.16812 0 0 .0441.0827.16123.11575zm0 0" fill="none" stroke="#730030" stroke-width=".048331"/><path d="m262.26458 284.06793c.1888.12265.5085.0193.5085.0193s-.008.0882.27974.20946c.42995.18053.88195.63666.29077 1.30087 0 0 .24529-.75654-.13367-.93293 0 0-.32935.32246-.80478-.31695-.0978-.12954-.14056-.27974-.14056-.27974" fill="#730030"/><path d="m262.26458 284.06794c.18879.12264.5085.0193.5085.0193s-.008.0882.27974.20946c.42995.18052.88194.63665.29077 1.30087 0 0 .24529-.75654-.13367-.93293 0 0-.32935.32246-.80478-.31695-.0978-.12954-.14056-.27974-.14056-.27974zm0 0" fill="none" stroke="#730030" stroke-width=".048331"/><path d="m263.33256 281.40419c.0152.19568.0441.20394.22325.29214 0 0 .0703-.0661.1061-.13367.11025-.2136-.0758-.52917-.0758-.52917.20257.24943.4961.16537.4961.16537-.022-.21222-.30593-.40652-.30593-.40652.26183.0496.46853-.0951.46853-.0951-.073-.13918-.35002-.31281-.35002-.31281.26734-.0179.45476-.18466.45476-.18466-.0799-.11438-.38034-.26321-.38034-.26321.14331-.0854.28525-.33486.28525-.33486-.20395-.11024-.43959-.0854-.43959-.0854.37758-.27698-.0303-1.03077-.0303-1.03077.0579 1.13826-.81993.84198-.75241 1.42214.0565.4768.57464.12678.57464.12678.0909.66421-.28938.72622-.28938.72622s.0193.15986.0248.32935c.007.20533-.0165.21911-.01.3142" fill="#730030"/><path d="m263.33256 281.40419c.0152.19568.0441.20395.22325.29214 0 0 .0703-.0661.1061-.13367.11025-.21359-.0758-.52916-.0758-.52916.20257.24942.4961.16536.4961.16536-.022-.21222-.30593-.40652-.30593-.40652.26183.0496.46853-.0951.46853-.0951-.073-.13919-.35002-.31282-.35002-.31282.26734-.0179.45476-.18466.45476-.18466-.0799-.11437-.38034-.2632-.38034-.2632.14331-.0854.28525-.33486.28525-.33486-.20395-.11025-.43959-.0854-.43959-.0854.37758-.27699-.0303-1.03078-.0303-1.03078.0579 1.13826-.81993.84199-.75241 1.42214.0565.4768.57464.12678.57464.12678.091.66421-.28938.72623-.28938.72623s.0193.15985.0248.32935c.007.20532-.0165.2191-.01.31419zm0 0" fill="none" stroke="#730030" stroke-width=".048331"/><path d="m264.48874 283.05921c-1.20854-.0289-1.42352-.94533-1.42352-.94533.11438-.1695.13505-.2577.13505-.2577l.0193-.0496c.0799.0868.38447.19982.38447.19982s.17501-.15159.21911-.21497c.11713-.1695.13643-.29215.13643-.29215.20395.005.39136-.17363.39136-.17363.0124-.18742-.0648-.34451-.0648-.34451.1447-.0675.2949-.21635.2949-.21635-.0978-.20671-.16123-.27423-.16123-.27423.23289-.18053.24116-.29077.24116-.29077-.0579-.1571-.2701-.31006-.2701-.31006.091-.12265.17777-.36105.17777-.36105-.16812-.16812-.32935-.2191-.32935-.2191.0248-.0951.0193-.18604.0124-.28663 0 0 1.3863-.7221 1.53927-1.18925 0 0 .0648.41479.0386.68213-.0234.2384-.39274.627-1.28433 1.2237.54708-.0841 1.29674-.37759 1.46072-.67111 0 0 .003.42582-.0923.678-.0772.20395-.46439.35002-1.33807.77997.43132.23702 1.19614-.0262 1.41524-.24667 0 0-.12126.37069-.26458.59806-.091.1447-.45337.38586-1.29535.26183.31281.38861.91225.68213 1.31878.49748 0 0-.0413.36931-.28801.4768-.18328.0799-.56775.13091-1.18236-.34451.37069.91639 1.27331.63665 1.27331.63665s-.2136.36518-.45062.49196c-.21084.11162-.6463.022-1.35186-.74552 0 0 .0441.67937.73863.90675" fill="#730030"/><path d="m264.48873 283.05921c-1.20854-.0289-1.42351-.94533-1.42351-.94533.11438-.1695.13505-.25769.13505-.25769l.0193-.0496c.0799.0868.38447.19981.38447.19981s.17501-.15158.21911-.21497c.11713-.1695.13643-.29215.13643-.29215.20395.006.39136-.17363.39136-.17363.0124-.18741-.0648-.34451-.0648-.34451.14469-.0675.2949-.21635.2949-.21635-.0978-.20671-.16123-.27423-.16123-.27423.23289-.18052.24116-.29077.24116-.29077-.0579-.15709-.2701-.31005-.2701-.31005.0909-.12265.17777-.36105.17777-.36105-.16812-.16812-.32935-.21911-.32935-.21911.0248-.0951.0193-.18603.0124-.28663 0 0 1.38631-.72209 1.53927-1.18925 0 0 .0648.41479.0386.68213-.0234.2384-.39274.62701-1.28433 1.2237.54708-.0841 1.29674-.37758 1.46072-.67111 0 0 .003.42582-.0923.678-.0772.20395-.4644.35002-1.33807.77997.43132.23702 1.19614-.0262 1.41524-.24667 0 0-.12126.37069-.26458.59807-.0909.14469-.45337.38585-1.29536.26183.31282.3886.91227.68213 1.31879.49747 0 0-.0413.36931-.28801.4768-.18328.0799-.56775.13091-1.18236-.34451.37069.9164 1.27331.63665 1.27331.63665s-.2136.36518-.45062.49196c-.21084.11162-.6463.022-1.35186-.74552 0 0 .0441.67938.73863.90675zm0 0" fill="none" stroke="#730030" stroke-width=".048331"/><path d="m262.93155 282.3633s-.23702.33348-.31143.55397c0 0 .46991.40514.38585.85025 0 0 .15847-.32246.051-.56775l-.0606-.15985s.40652.1943.67524.0496c0 0-.28939.0331-.61047-.47267-.1695-.2701-.12954-.25356-.12954-.25356" fill="#730030"/><path d="m262.93155 282.3633s-.23702.33348-.31144.55397c0 0 .46992.40514.38586.85025 0 0 .15847-.32246.051-.56775l-.0606-.15986s.40652.19431.67524.0496c0 0-.28939.0331-.61047-.47266-.1695-.2701-.12954-.25356-.12954-.25356zm0 0" fill="none" stroke="#730030" stroke-width=".048331"/><path d="m264.49425 283.73307c.0551.003.26734-.0744.32246.0854.0634.18741-.15434.27009-.27837.16123-.13642-.11713-.34312-.11438-.39136-.0317-.0234.0386-.051.12127.1323.25907.0565.0441.36242.23289.14882.43546-.073.0675-.27147.04-.32246-.23564-.0358-.20671-.10059-.31144-.17639-.34589-.0386-.0179-.16261-.0537-.22875.001l-.0606.0469c-.11025.073-.24805-.0138-.21911-.13367.0331-.1378.14056-.10473.21911-.0661.0579.0289.13229.004.13229.004.0524-.0262.0689-.0854-.0165-.12678-.36931-.17501-.44097-.37758-.44097-.37758.17639.0207.32384-.0331.32384-.0331s.33073.44373.58429.3266c.0827-.0386.113-.17226.11438-.23427.003-.13229.14882-.20119.22875-.10749.0772.0896-.011.18329-.0896.2136-.0469.0193-.11851.0799-.0896.12678.0289.0469.0703.0289.10748.0317" fill="#730030"/><path d="m264.49425 283.73307c.0551.003.26734-.0744.32246.0854.0634.18741-.15434.27009-.27836.16123-.13642-.11714-.34313-.11438-.39136-.0317-.0234.0386-.051.12127.13229.25907.0565.0441.36242.23289.14883.43546-.073.0675-.27148.04-.32246-.23564-.0358-.20671-.1006-.31144-.17639-.34589-.0386-.0179-.16261-.0537-.22876.001l-.0606.0469c-.11024.073-.24805-.0138-.21911-.13367.0331-.1378.14056-.10473.21911-.0661.0579.0289.13229.004.13229.004.0524-.0262.0689-.0854-.0165-.12678-.36932-.17501-.44098-.37758-.44098-.37758.17639.0207.32384-.0331.32384-.0331s.33073.44373.58429.32659c.0827-.0386.113-.17225.11438-.23426.003-.1323.14883-.2012.22875-.10749.0772.0896-.011.18328-.0896.21359-.0469.0193-.11851.0799-.0896.12678.0289.0469.0703.0289.10748.0317zm0 0" fill="none" stroke="#730030" stroke-width=".048331"/><path d="m264.62241 283.24662s.0675.0303.0772.0923c0 0 .12953-.0965.22048.0551 0 0-.0248-.24253-.29765-.14745" fill="#730030"/><path d="m264.62241 283.24662s.0675.0303.0772.0923c0 0 .12953-.0965.22048.0551 0 0-.0248-.24253-.29765-.14745zm0 0" fill="none" stroke="#730030" stroke-width=".048331"/><path d="m264.94073 283.86399s.0303.0675-.0289.16812c0 0 .16536.0606.0565.27147 0 0 .23978-.23013-.0276-.43959" fill="#730030"/><path d="m264.94073 283.86398s.0303.0675-.0289.16812c0 0 .16536.0606.0565.27147 0 0 .23978-.23013-.0276-.43959zm0 0" fill="none" stroke="#730030" stroke-width=".048331"/><path d="m264.60587 284.59986s.004.0744-.0868.14607c0 0 .13367.11575-.0427.27423 0 0 .30455-.13091.12954-.4203" fill="#730030"/><path d="m264.60587 284.59986s.004.0744-.0868.14607c0 0 .13367.11576-.0427.27423 0 0 .30454-.13091.12953-.4203zm0 0" fill="none" stroke="#730030" stroke-width=".048331"/><path d="m261.9876 284.44689c.0358-.0179.073-.0248.11851-.0703 0 0 .31006.73036 1.00734.65457 0 0-.04.15572-.31557.17364 0 0 .47129.2191.19982.43959-.17777.14607-.31833-.26045-.31833-.26045s-.0207.37207-.34175.37483c0 0 .4768-.27837-.0221-.93431.0482.46026-.11162.88745-.32659.88745-.21636 0-.37621-.42719-.32798-.88745-.49885.65594-.022.93431-.022.93431-.32108-.003-.34175-.37483-.34175-.37483s-.14056.40652-.31833.26045c-.27285-.22049.2012-.43959.2012-.43959-.27699-.0179-.31695-.17364-.31695-.17364.69729.0758 1.00734-.65457 1.00734-.65457.0455.0455.0813.0524.11714.0703" fill="#730030"/><path d="m261.9876 284.44689c.0358-.0179.073-.0248.11851-.0703 0 0 .31006.73036 1.00735.65457 0 0-.04.15572-.31557.17363 0 0 .47129.21911.19981.4396-.17776.14607-.31832-.26045-.31832-.26045s-.0207.37207-.34176.37482c0 0 .47681-.27836-.022-.93431.0482.46027-.11163.88746-.3266.88746-.21635 0-.3762-.42719-.32797-.88746-.49885.65595-.022.93431-.022.93431-.32108-.003-.34175-.37482-.34175-.37482s-.14057.40652-.31833.26045c-.27285-.22049.20119-.4396.20119-.4396-.27698-.0179-.31695-.17363-.31695-.17363.69729.0758 1.00735-.65457 1.00735-.65457.0455.0455.0813.0524.11713.0703zm0 0" fill="none" stroke="#730030" stroke-width=".048331"/><path d="m261.92283 278.36286-.006-.0207-.022-.0841-.006-.0207-.0193.008-.37345.14469.19982-.011-.011.04c0 .0455.0372.0841.0827.0841.0469 0 .0841-.0386.0841-.0841l-.0152-.0482.0634-.007zm0 0" fill="#fab83a" stroke="#fab83a" stroke-width=".048331"/><path d="m262.95223 280.98526c-.0661-.13091-.13918-.17088-.20671-.19292l-.0317-.0579c-.0868-.1254-.22738-.14194-.32935-.10198-.0358.0138-.0579.0234-.0758.0344l.0234-.0303.004-.007c.0165-.022.0317-.0441.0537-.10198.0386-.10059.022-.24253-.10198-.32935l-.0579-.0303c-.022-.0661-.062-.14056-.19431-.2067l-.0358-.0193-.0372.0193c-.13092.0648-.17088.13918-.19293.2067l-.0579.0303c-.12402.0868-.14193.22876-.10335.32935.0221.0579.0386.0799.0551.10198l.004.007.0234.0331c-.0165-.011-.04-.022-.0799-.0372-.1006-.04-.24116-.0234-.32935.10198l-.0303.0579c-.0661.0207-.14056.0606-.20671.19292l-.0193.0372.0193.0358c.0648.13091.13919.17087.20671.19292l.0303.0593c.0882.12402.22875.14056.32935.10197.0579-.022.0799-.0372.10197-.0537l.007-.004.0372-.0276v.33487l-.04-.0331-.0496.0703-.004.007c-.0165.0207-.0331.0441-.0551.10197-.0386.1006-.0207.24116.10335.32935l.0579.0303c.0207.0661.0606.14056.19293.2067l.0372.0193.0358-.0193c.13092-.0648.17226-.13918.19293-.2067l.0592-.0303c.12403-.0882.14056-.22875.10198-.32935-.0221-.0579-.0372-.0813-.0537-.10197l-.004-.007-.051-.0689-.04.0317v-.33349l.0358.0262.006.004c.022.0165.0455.0317.10198.0537.10197.0386.24253.0221.32935-.10197l.0317-.0579c.0661-.022.14056-.062.20671-.1943l.0179-.0358zm0 0" fill="#fab83a" stroke="#fab83a" stroke-width=".048331"/><path d="m262.75516 281.01282c-.001 0-.073-.1006-.17639-.0758.0124-.0289.0179-.0689-.011-.10887-.0413-.0606-.10336-.0551-.13092-.0441l-.0165.007.011.0152.0152.0386c.001.0207 0 .0537-.04.0841l-.0923.0165h-.23702v-.35553l.0165-.0923c.0303-.04.0634-.0427.0841-.04l.0386.0138.0152.0124.007-.0179c.011-.0262.0165-.0882-.0427-.13092-.04-.0276-.0813-.022-.11025-.01.0248-.10336-.0744-.17501-.0758-.17639l-.004-.003h-.008l-.004.003c-.001.001-.1006.073-.0758.17639-.0289-.0124-.0703-.0179-.11024.01-.0593.0427-.0537.10473-.0427.13092l.007.0165.0138-.01.0386-.0152c.0221-.003.0551 0 .0854.04l.0165.0882-.001.001v.35828h-.24804l-.0909-.0165c-.04-.0303-.0427-.0634-.0413-.0841l.0151-.0386.011-.0152-.0165-.007c-.0262-.011-.0896-.0165-.13091.0441-.0276.04-.0234.0799-.01.10887-.10335-.0248-.17639.0758-.17639.0758l-.003.004v.008l.003.004c0 .001.073.10059.17639.0758-.0138.0303-.0179.0703.01.11024.0413.0593.10473.0537.13091.0427l.0165-.007-.011-.0138-.0151-.0386c-.001-.022.001-.0551.0413-.0854l.0882-.0165.001.001h.24943v.64354l.001.004-.0165.0882c-.0303.04-.0634.0413-.0854.04l-.0386-.0138-.0138-.0124-.007.0165c-.011.0276-.0165.0896.0427.13091.04.0289.0813.0234.11025.011-.0248.10336.0744.17501.0758.17639l.004.001h.008l.004-.001c.001-.001.1006-.073.0758-.17639.0289.0124.0703.0179.11024-.011.0593-.0413.0537-.10335.0427-.13091l-.007-.0165-.0152.011-.0386.0152c-.0207.001-.0538 0-.0841-.04l-.0165-.0923v-.64354h.23702l.004-.001.0882.0165c.04.0303.0413.0634.04.0854l-.0138.0386-.0124.0138.0165.007c.0276.011.0896.0165.13091-.0427.0289-.04.0234-.0799.011-.11024.10336.0248.17502-.0744.17639-.0758l.001-.004v-.008zm0 0" fill="#730030" stroke="#730030" stroke-width=".048331"/></g><use fill="#fff" height="100%" transform="matrix(.35277778 0 0 .35277778 -101.050722 -140.334471)" width="100%" x="517.39484" xlink:href="#g" y="222.9304"/></svg>