<?xml version="1.0" encoding="UTF-8" standalone="no"?>
<svg
   xmlns:dc="http://purl.org/dc/elements/1.1/"
   xmlns:cc="http://creativecommons.org/ns#"
   xmlns:rdf="http://www.w3.org/1999/02/22-rdf-syntax-ns#"
   xmlns:svg="http://www.w3.org/2000/svg"
   xmlns="http://www.w3.org/2000/svg"
   viewBox="0 0 221.60001 187.58667"
   height="187.58667"
   width="221.60001"
   xml:space="preserve"
   id="svg2"
   version="1.1"><metadata
     id="metadata8"><rdf:RDF><cc:Work
         rdf:about=""><dc:format>image/svg+xml</dc:format><dc:type
           rdf:resource="http://purl.org/dc/dcmitype/StillImage" /></cc:Work></rdf:RDF></metadata><defs
     id="defs6" /><g
     transform="matrix(1.3333333,0,0,-1.3333333,0,187.58667)"
     id="g10"><g
       transform="scale(0.1)"
       id="g12"><path
         id="path14"
         style="fill:#7c7069;fill-opacity:1;fill-rule:nonzero;stroke:none"
         d="M 170.898,2.57813 C 169.625,12.9219 168.766,25.8203 168.766,46.9219 151.949,17.6602 123.992,0.441406 92.1172,0.441406 64.6055,0.441406 43.4805,13.7617 34.8906,36.5781 30.5625,48.2188 28.8555,65.8789 28.8555,103.301 v 71.058 c 0,22.352 -1.7383,31.411 -6.4532,35.301 -2.6015,2.559 -6.4804,3.41 -14.62886,3.86 -5.64063,0 -5.64063,0 -7.77344,0 v 9.5 l 66.7227,4.308 C 64.6055,187.281 64.1445,176.93 64.1445,147.199 v -37.437 c 0,-43.4729 0.8828,-55.0901 6.0352,-70.1331 5.1719,-15.9297 17.2031,-24.168 34.8863,-24.168 23.684,0 44.758,15.5391 55.946,41.8008 6.437,14.6485 7.754,24.0899 7.754,50.7893 v 66.308 c 0,22.789 -1.317,30.981 -6.457,34.871 -2.598,2.571 -6.887,3.84 -14.633,4.29 h -7.789 v 9.5 l 66.761,4.308 c -1.312,-32.316 -2.16,-60.726 -2.16,-80.129 V 65.8789 c 0,-43.0781 3.86,-50.8398 26.25,-50.8398 h 3.051 V 5.60156 L 170.898,2.57813" /><path
         id="path16"
         style="fill:#7c7069;fill-opacity:1;fill-rule:nonzero;stroke:none"
         d="m 373.227,58.5391 c 17.238,-30.5703 44.336,-46.9102 78.8,-46.9102 34.438,0 61.547,16.3399 78.778,46.9102 15.468,28 23.207,61.5899 23.207,103.3009 0,41.781 -7.739,75.351 -23.207,103.34 -17.231,30.98 -44.34,46.922 -78.778,46.922 -34.464,0 -61.562,-16.352 -78.8,-46.922 -15.489,-28.418 -23.247,-62.379 -23.247,-103.34 0,-40.879 7.758,-74.4494 23.247,-103.3009 z M 342.234,274.691 c 25.832,32.258 63.27,49.047 109.793,49.047 46.946,0 83.496,-16.347 109.739,-49.047 23.703,-30.152 35.738,-67.632 35.738,-112.851 0,-45.231 -12.035,-83.0783 -35.738,-112.3205 C 535.105,16.3516 498.973,0 452.027,0 405.504,0 367.605,17.2383 342.234,49.5195 318.555,79.6289 306.492,117.102 306.492,161.84 c 0,45.219 11.637,82.25 35.742,112.851" /><path
         id="path18"
         style="fill:#7c7069;fill-opacity:1;fill-rule:nonzero;stroke:none"
         d="m 695.215,66.7109 c 0,-25.3828 1.289,-36.6093 5.586,-42.6093 4.328,-6.043 11.211,-9.0625 21.109,-9.0625 9.485,0 17.664,2.1992 27.121,7.7617 l 3.883,-11.1719 C 738.695,4.28906 724.93,0.871094 709.449,0.871094 c -21.121,0 -37.047,7.300786 -44.355,21.070306 -4.746,8.6094 -6.031,18.0703 -6.031,49.9688 V 211.34 h -27.11 v 9.922 c 25.391,2.168 38.301,18.949 44.766,59.429 l 19.785,5.579 c -0.856,-18.5 -1.289,-34.848 -1.289,-63.25 h 51.66 v -11.68 h -51.66 V 66.7109" /><path
         id="path20"
         style="fill:#7c7069;fill-opacity:1;fill-rule:nonzero;stroke:none"
         d="m 837.168,66.7109 c 0,-25.3828 1.277,-36.6093 5.566,-42.6093 4.313,-6.043 11.219,-9.0625 21.094,-9.0625 9.5,0 17.625,2.1992 27.125,7.7617 l 3.883,-11.1719 C 880.625,4.28906 866.84,0.871094 851.355,0.871094 c -21.078,0 -37.015,7.300786 -44.339,21.070306 -4.719,8.6094 -6.039,18.0703 -6.039,49.9688 V 211.34 h -27.129 v 9.922 c 25.41,2.168 38.347,18.949 44.804,59.429 l 19.793,5.579 c -0.847,-18.5 -1.277,-34.848 -1.277,-63.25 h 51.621 V 211.34 H 837.168 V 66.7109" /><path
         id="path22"
         style="fill:#7c7069;fill-opacity:1;fill-rule:nonzero;stroke:none"
         d="m 1062.29,125.719 c -38.32,-3.438 -55.12,-6.918 -72.31,-15.547 -18.933,-9.024 -28.878,-26.2111 -28.878,-49.0626 0,-27.0977 14.66,-45.6485 36.203,-45.6485 21.935,0 44.325,12.9375 55.055,31.461 6.91,12.0273 9.93,30.1367 9.93,58.5661 z M 1124.72,6.46875 c -16.77,-2.60937 -35.76,-4.34766 -44.36,-4.34766 -12.91,0 -16.38,6.89844 -18.07,35.76951 -6.88,-7.789 -12.47,-12.4609 -21.11,-18.582 -18.89,-13.70704 -34.01,-18.437506 -55.938,-18.437506 -18.953,0 -33.144,4.289066 -43.902,13.320306 -11.652,10.3594 -18.973,27.5781 -18.973,45.6602 0,34 21.539,55.9494 63.317,65.4294 22.366,5.16 45.176,8.18 76.606,10.328 v 27.09 c 0,19.813 -1.7,30.16 -6.03,39.211 -5.58,11.16 -17.64,16.77 -35.3,16.77 -28.401,0 -43.062,-12.91 -44.761,-39.61 -0.437,-9 -1.289,-12.05 -4.734,-14.621 -3.035,-2.14 -8.633,-3.418 -15.078,-3.418 -14.629,0 -21.071,3.828 -21.071,12.891 0,15.488 11.157,31 29.243,41.308 16.379,9.071 37.461,13.739 62.841,13.739 27.59,0 47.36,-6.43 57.69,-18.879 8.61,-10.77 12.5,-24.981 12.5,-48.66 0,-1.301 0,-1.301 -0.86,-43.489 l -0.42,-40.8824 -0.46,-19.7969 c 0,-18.0625 2.17,-33.5625 4.77,-37.0625 2.57,-3.4297 7.74,-4.7383 24.1,-4.7383 V 6.46875" /><path
         id="path24"
         style="fill:#7c7069;fill-opacity:1;fill-rule:nonzero;stroke:none"
         d="m 1232.32,3.85938 h -22.34 L 1156.56,182.512 c -7.33,24.547 -12.46,29.707 -33.59,31.008 v 9.5 h 95.6 v -9.5 c -20.68,-0.84 -28.85,-5.192 -28.85,-15.942 0,-3.398 1.29,-9.906 3.85,-18.906 l 38.75,-135.2111 56.82,173.9611 h 17.67 l 54.68,-173.9611 37.46,126.6091 c 3.43,10.739 5.17,18.942 5.17,24.942 0,7.328 -4.33,12.918 -12.04,15.527 -5.22,1.68 -8.23,2.141 -19.4,2.981 v 9.5 h 84.39 v -9.5 c -23.71,-1.301 -31.87,-9.5 -42.19,-42.641 L 1362.75,3.85938 h -21.94 L 1287.04,169.172 1232.32,3.85938" /><path
         id="path26"
         style="fill:#7c7069;fill-opacity:1;fill-rule:nonzero;stroke:none"
         d="m 1599.53,125.719 c -38.29,-3.438 -55.11,-6.918 -72.31,-15.547 -18.94,-9.024 -28.84,-26.2111 -28.84,-49.0626 0,-27.0977 14.66,-45.6485 36.14,-45.6485 21.97,0 44.36,12.9375 55.12,31.461 6.86,12.0273 9.89,30.1367 9.89,58.5661 z M 1661.97,6.46875 c -16.79,-2.60937 -35.75,-4.34766 -44.33,-4.34766 -12.94,0 -16.4,6.89844 -18.11,35.76951 -6.9,-7.789 -12.48,-12.4609 -21.09,-18.582 -18.92,-13.70704 -34.02,-18.437506 -55.98,-18.437506 -18.94,0 -33.12,4.289066 -43.88,13.320306 -11.63,10.3594 -18.94,27.5781 -18.94,45.6602 0,34 21.53,55.9494 63.28,65.4294 22.35,5.16 45.21,8.18 76.61,10.328 v 27.09 c 0,19.813 -1.75,30.16 -6.02,39.211 -5.58,11.16 -17.65,16.77 -35.32,16.77 -28.4,0 -43.02,-12.91 -44.72,-39.61 -0.43,-9 -1.33,-12.05 -4.75,-14.621 -3.02,-2.14 -8.61,-3.418 -15.05,-3.418 -14.66,0 -21.11,3.828 -21.11,12.891 0,15.488 11.16,31 29.28,41.308 16.33,9.071 37.42,13.739 62.81,13.739 27.57,0 47.38,-6.43 57.7,-18.879 8.59,-10.77 12.51,-24.981 12.51,-48.66 0,-1.301 0,-1.301 -0.88,-43.489 l -0.43,-40.8824 -0.44,-19.7969 c 0,-18.0625 2.13,-33.5625 4.73,-37.0625 2.63,-3.4297 7.79,-4.7383 24.13,-4.7383 V 6.46875" /><path
         id="path28"
         style="fill:#7c7069;fill-opacity:1;fill-rule:nonzero;stroke:none"
         d="m 644.082,1262.74 h 12.309 l 5.882,10.8 c 41.301,76.03 114.598,91.97 168.813,91.97 54.258,0 127.574,-15.94 168.816,-91.95 l 5.888,-10.82 c 0,0 54.51,0 78.54,0 0,-14.44 0,-50.55 0,-50.55 0,0 69,0 94.19,0 0,-37.77 0,-618.885 0,-656.647 -37.94,0 -656.848,0 -694.805,0 0,37.762 0,618.877 0,656.647 25.187,0 94.183,0 94.183,0 0,0 0,36.11 0,50.55 24.028,0 66.184,0 66.184,0 z m -11.812,41.37 c -17.653,0 -95.743,0 -95.743,0 0,0 0,-36.1 0,-50.54 -25.203,0 -94.187,0 -94.187,0 V 514.164 h 777.56 v 739.406 c 0,0 -69.01,0 -94.2,0 0,14.44 0,50.54 0,50.54 0,0 -78.13,0 -95.79,0 -40.887,66.36 -110.957,102.78 -198.824,102.78 -87.82,0 -157.883,-36.42 -198.816,-102.78" /><path
         id="path30"
         style="fill:#7c7069;fill-opacity:1;fill-rule:nonzero;stroke:none"
         d="M 526.813,666.383 H 1135.33 V 643.617 H 526.813 v 22.766 0" /><path
         id="path32"
         style="fill:#7c7069;fill-opacity:1;fill-rule:nonzero;stroke:none"
         d="M 509.023,626.559 H 1153.29 V 603.805 H 509.023 v 22.754 0" /><path
         id="path34"
         style="fill:#7c7069;fill-opacity:1;fill-rule:nonzero;stroke:none"
         d="m 824.07,1165.75 -304.25,-109.4 13.993,-38.94 c 0,0 283.902,102.08 297.273,106.88 13.355,-4.8 297.304,-106.88 297.304,-106.88 l 13.98,38.94 -311.284,111.92 -7.016,-2.52" /><path
         id="path36"
         style="fill:#7c7069;fill-opacity:1;fill-rule:nonzero;stroke:none"
         d="m 1040.42,730.414 h -65.029 l -5.625,231.633 c 1.726,-0.852 3.652,-1.379 5.703,-1.379 7.148,0 12.961,5.723 12.961,12.871 0,3.496 -1.418,6.652 -3.703,9.004 h 46.483 c -2.26,-2.352 -3.69,-5.508 -3.69,-9.004 0,-7.148 5.81,-12.871 12.9,-12.871 2.03,0 3.93,0.508 5.64,1.348 z m -117.881,0 h -65.027 l -5.633,231.484 c 1.684,-0.769 3.512,-1.23 5.469,-1.23 7.109,0 12.906,5.723 12.906,12.871 0,3.496 -1.414,6.652 -3.684,9.004 h 46.52 c -2.27,-2.352 -3.672,-5.508 -3.672,-9.004 0,-7.148 5.758,-12.871 12.879,-12.871 2.129,0 4.121,0.566 5.894,1.477 z m -117.82,0 h -65.223 l -5.629,231.66 c 1.754,-0.879 3.692,-1.406 5.766,-1.406 7.148,0 12.926,5.723 12.926,12.871 0,3.496 -1.418,6.652 -3.692,9.004 h 46.5 c -2.258,-2.352 -3.668,-5.508 -3.668,-9.004 0,-7.148 5.781,-12.871 12.867,-12.871 2.075,0 4.024,0.527 5.77,1.406 z m -118.024,0 h -65.183 l -5.633,231.699 c 1.777,-0.898 3.754,-1.445 5.867,-1.445 7.098,0 12.852,5.723 12.852,12.871 0,3.496 -1.395,6.652 -3.66,9.004 h 46.257 c -2.254,-2.352 -3.64,-5.508 -3.64,-9.004 0,-7.148 5.761,-12.871 12.886,-12.871 2.114,0 4.075,0.547 5.821,1.445 z m 406.545,0 -5.68,231.816 c 1.81,-0.964 3.85,-1.562 6.04,-1.562 7.12,0 12.87,5.723 12.87,12.871 0,3.496 -1.38,6.652 -3.64,9.004 h 10.4 V 1005.3 H 548.961 v -22.757 h 10.375 c -2.277,-2.352 -3.672,-5.508 -3.672,-9.004 0,-7.148 5.758,-12.871 12.871,-12.871 2.102,0 4.059,0.527 5.813,1.445 l -5.621,-231.699 h -21.34 v -37.949 h 567.363 v 37.949 h -21.51" /></g></g></svg>