<?xml version="1.0" encoding="utf-8"?>
<!-- Generator: Adobe Illustrator 22.1.0, SVG Export Plug-In . SVG Version: 6.00 Build 0)  -->
<svg version="1.1" id="Layer_1" xmlns="http://www.w3.org/2000/svg" xmlns:xlink="http://www.w3.org/1999/xlink" x="0px" y="0px"
	 width="250.5px" height="59.87px" viewBox="0 0 250.5 59.87" enable-background="new 0 0 250.5 59.87" xml:space="preserve">
<path d="M58.2,19.33h5.39l4.72,15.45l5.12-15.52h4.3l5.12,15.52l4.73-15.45h5.25l-7.8,22.99h-4.36l-5.15-14.93l-5.16,14.93H66
	L58.2,19.33z M91,42.32h5.12l2.09-5.12h9.65l2.09,5.12h5.25l-9.78-22.99h-4.63L91,42.32z M100.01,32.76l3.03-7.4l3.03,7.4H100.01z
	 M120.67,42.32h5.03v-18.2h6.94v-4.63h-18.92v4.63h6.94V42.32z M136.47,42.32h17.38v-4.47h-12.39v-4.79h10.76v-4.47h-10.76v-4.63
	h12.23v-4.46h-17.22V42.32z M159.25,42.32h5.03v-7.3h3.94l4.89,7.3h5.87l-5.57-8.15c2.9-1.07,4.89-3.39,4.89-7.08v-0.07
	c0-2.15-0.69-3.94-1.96-5.21c-1.5-1.5-3.75-2.32-6.65-2.32h-10.44V42.32z M164.27,30.58v-6.55h4.99c2.44,0,3.95,1.11,3.95,3.26v0.07
	c0,1.92-1.4,3.23-3.85,3.23H164.27z M183.83,42.32h15.71v-4.57h-10.69V19.49h-5.02V42.32z M200.31,30.97
	c0,6.49,5.06,11.74,12.1,11.74c7.04,0,12.16-5.31,12.16-11.81v-0.06c0-6.49-5.06-11.74-12.1-11.74c-7.05,0-12.17,5.32-12.17,11.81
	V30.97 M219.33,30.97c0,3.92-2.8,7.11-6.84,7.11c-4.05,0-6.92-3.26-6.92-7.18v-0.06c0-3.91,2.8-7.11,6.85-7.11
	c4.04,0,6.91,3.27,6.91,7.17V30.97 M225.99,30.97c0,6.49,5.05,11.74,12.1,11.74c7.04,0,12.16-5.31,12.16-11.81v-0.06
	c0-6.49-5.05-11.74-12.1-11.74c-7.04,0-12.16,5.32-12.16,11.81V30.97 M245,30.97c0,3.92-2.81,7.11-6.85,7.11
	c-4.04,0-6.91-3.26-6.91-7.18v-0.06c0-3.91,2.81-7.11,6.85-7.11c4.05,0,6.92,3.27,6.92,7.17V30.97 M70.95,7.94
	c0,3.09,1.73,4.67,4.55,4.67c2.82,0,4.61-1.56,4.61-4.75V1.93H77.8v6.03c0,1.67-0.86,2.52-2.27,2.52c-1.41,0-2.27-0.89-2.27-2.6
	V1.93h-2.31V7.94 M86.27,12.45h2.28V5.76l5.09,6.68h1.97V1.93h-2.28v6.48L88.4,1.93h-2.13V12.45z M102.19,12.45h2.31V1.93h-2.31
	V12.45z M114.44,12.52h2.04l4.25-10.59h-2.49l-2.75,7.41l-2.75-7.41h-2.55L114.44,12.52z M126.31,12.45h8.01v-2.06h-5.71V8.18h4.96
	V6.12h-4.96V3.99h5.63V1.93h-7.93V12.45z M142.64,7.04V4.02h2.3c1.13,0,1.82,0.51,1.82,1.5v0.03c0,0.89-0.65,1.49-1.77,1.49H142.64z
	 M140.33,12.45h2.31V9.08h1.82l2.25,3.37h2.71l-2.57-3.75c1.34-0.5,2.25-1.56,2.25-3.26V5.4c0-0.99-0.32-1.82-0.9-2.4
	c-0.69-0.69-1.73-1.07-3.07-1.07h-4.81V12.45z M154.42,10.92c1.26,1.13,2.87,1.68,4.46,1.68c2.27,0,3.86-1.17,3.86-3.26V9.31
	c0-1.83-1.2-2.6-3.33-3.16c-1.82-0.47-2.27-0.69-2.27-1.38V4.74c0-0.51,0.47-0.92,1.35-0.92c0.89,0,1.8,0.39,2.73,1.04l1.2-1.74
	c-1.07-0.86-2.37-1.34-3.91-1.34c-2.15,0-3.68,1.26-3.68,3.17v0.03c0,2.09,1.37,2.67,3.49,3.22c1.76,0.45,2.12,0.75,2.12,1.34v0.03
	c0,0.61-0.57,0.99-1.52,0.99c-1.2,0-2.19-0.5-3.14-1.28L154.42,10.92 M168.81,12.45h2.31V1.93h-2.31V12.45z M180.15,12.45h2.31V4.07
	h3.2V1.93h-8.71v2.13h3.2V12.45z M194.35,12.45h2.31V8.26l4.04-6.33h-2.63l-2.55,4.22l-2.51-4.22h-2.7l4.04,6.37V12.45z
	 M222.61,7.22c0,1.8-1.29,3.28-3.15,3.28c-1.86,0-3.19-1.5-3.19-3.31V7.16c0-1.8,1.29-3.28,3.16-3.28c1.86,0,3.19,1.5,3.19,3.31
	V7.22 M213.86,7.22c0,2.99,2.33,5.41,5.57,5.41c3.25,0,5.6-2.45,5.6-5.44V7.16c0-2.99-2.33-5.41-5.57-5.41
	c-3.24,0-5.6,2.45-5.6,5.44V7.22 M230,12.45h2.31V8.38h5.02v-2.1h-5.02V4.04h5.69v-2.1H230V12.45z"/>
<g>
	<path fill="#FFFFFF" d="M26.12,59.81l-0.61-0.29c-6.83-3.16-12.34-7.75-15.93-13.27C0.94,33.01,0.66,19.34,0.36,4.86
		c-0.02-1.1-0.05-2.2-0.07-3.3l-0.04-1.5h51.72l-0.04,1.5c-0.03,1.11-0.05,2.22-0.07,3.32c-0.3,14.47-0.59,28.14-9.22,41.38
		c-3.59,5.51-9.09,10.1-15.9,13.27L26.12,59.81z"/>
	<path fill="#FFD54F" d="M26,17.89L5.74,33.84C2.48,23.75,2.57,13.21,2.31,2.47h47.28c-0.26,10.77-0.14,21.27-3.42,31.38L26,17.89z
		 M26.01,29.36L9.52,42.51c0,0,1.01,1.73,1.57,2.59c3.6,5.53,8.96,9.63,14.87,12.37c5.89-2.74,11.24-6.83,14.84-12.37
		c0.57-0.88,1.11-1.76,1.61-2.65L26.01,29.36z"/>
	<path fill="#BA0C2F" d="M12.13,10.57c0.02,0-0.21,0.16-0.19,0.16c-0.16,0.22-0.15,0.24-0.28,0.46c-0.13,0.21-0.24,0.43-0.31,0.65
		c-0.01,0.04-0.09-0.01-0.14-0.01c-0.07,0-0.09-0.04-0.13-0.04c-0.23,0.01-0.21-0.04-0.39-0.02c-0.12,0.01-0.15,0.02-0.31,0.06
		c-0.03,0.01-0.12,0-0.16-0.01c-0.04-0.01-0.14,0.02-0.17-0.02c-0.07-0.13-0.02-0.27-0.08-0.4c-0.04-0.07-0.2-0.13-0.27-0.18
		c-0.08-0.06-0.17-0.09-0.26-0.13C9.36,11.05,9.3,11,9.22,10.98c-0.09-0.02-0.33-0.08-0.4-0.15c-0.16-0.14-0.22-0.17-0.35-0.34
		c-0.19-0.23-0.21-0.56-0.39-0.81C7.9,9.45,7.68,9.29,7.35,9.23C6.7,9.12,7.42,9.09,7.16,8.62C6.74,7.83,6.15,7.7,5.38,7.59
		C5.21,7.57,5.16,6.95,4.76,7.13c0.27-0.6,0.62-0.34,0.95-0.66c0.18-0.18,0-0.22,0-0.22C5.62,6.1,5.43,6.21,5.32,6.12
		C5.21,6.03,5.11,5.93,5.05,5.8C5,5.67,5.07,5.52,4.97,5.4C4.96,5.38,4.94,5.34,4.91,5.36c0.2-0.01,0.34-0.15,0.49-0.27
		c0.02-0.02,0.05-0.04,0.08-0.05c0.15-0.02,0.3-0.03,0.43,0.01C6.12,5.1,6.18,5.21,6.13,5.17C5.98,5.04,6.37,5.29,6.37,5.44
		c0,0.03,0.02,0.16,0.03,0.19c0.06,0.15,0.07,0.3,0.15,0.38c0.04,0.03,0.02,0.05,0.05,0.08c0.03,0.04,0.17,0.06,0.21,0.07
		c0.02,0.01,0.05,0.05,0.07,0.06C6.98,6.28,6.92,6.31,7,6.3c0.06-0.01,0.04-0.08,0.03-0.13C7,5.96,6.91,5.69,7.09,5.51
		c0.03-0.03,0.04-0.07,0.08-0.09C7.2,5.4,7.23,5.35,7.26,5.32c0.06-0.08,0.06-0.17,0.1-0.26c0,0.04,0.11,0.08,0.14,0.1
		c0.08,0.05,0.15,0.09,0.24,0.12c0.03,0.01,0.07,0.07,0.08,0.08C8.03,5.43,8.13,6,8.12,6.02C7.61,8.28,9.74,10.06,12.13,10.57
		 M6.16,10.84c-0.28-0.15-0.55-0.14-0.83-0.1c-0.1,0.01-0.19,0.16-0.16,0.29c0.11-0.12,0.28,0.06,0.27,0.1
		c-0.1,0.34-0.16,0.39,0.29,0.68c-1.67-0.09-1.11,1.33-0.91,0.99c0.08-0.14,0.7,0.09,0.73,0.25c0.02,0.11-0.04,0.23-0.32,0.74
		c-0.06,0.11,0.24,0.8,0.27,0.64c0.05-0.33,0.42-0.21,0.59-0.11c0.43-0.21,0.31-0.45,0.6-0.49c0.45-0.05,0.52,0.03,0.61,0.3
		c0.04,0.12-0.03,0.31-0.05,0.38c0.56,0.07,0.96-0.68,1.47-0.48c0.73,0.29,1.87,0.65,2.25,0.35c0.12-0.09-0.18-0.79,0.09-1.62
		c-1.2,0.59-2.54,0.22-3.66-0.32C6.76,12.16,6.86,11.22,6.16,10.84 M9.48,7.4c0.84,1.26,2.76,0.23,3.41,0.47
		C12.01,6.33,10.5,7.64,9.48,7.4 M17.96,9.64c0.02-1.12-0.37-2.41-1.09-3.3c0.05,1.15-0.38,2.32-1.39,2.92
		c-1.41,0.83-3.16,1.35-3.64,3.1c-0.18,0.64-0.41,2.07-0.1,2.7c0.11-0.33,0.3-0.64,0.68-0.65c1.36-0.05,1.76-0.32,2.67-0.98
		c0.33-0.23,1.19,0.72,1.17,0.58c-0.02-0.16-0.06-0.93,0.11-0.79c0.32,0.26,0.85,0.41,1.31,0.42C16.57,12.39,17.94,10.97,17.96,9.64
		 M11.52,24.52c0.17,0.04,0.04,0.18-0.02,0.22c-0.14,0.09-0.24,0.21-0.33,0.35c-0.07,0.1-0.11,0.22-0.09,0.34
		c0.02,0.09,0.05,0.18,0.08,0.26c0.02,0.05,0.07,0.08,0.11,0.13c0.02,0.02,0.08,0.1,0.08,0.1c-0.04-0.13,0.15-0.27,0.19-0.24
		c0.87,0.51,0.92-0.52,1.44-0.87c0.22-0.15,0.72,0.02,0.59,0.48c0.52-0.28,0.67-0.98,1.08-1.41c0.9-0.97,2.15-1.62,3.35-2.15
		c-0.43-0.46-1.07-0.84-1.39-1.37c-0.16-0.26-0.35-0.77,0-0.68c1.47,0.38,2.29-0.51,2.45-1.67c2.17,0.28,2.74-1.77,3.03-3.32
		c0.14-0.75,0.55-0.82,0.1-2.1c-0.19-0.54,0.96-0.71,0.77-1.64c-0.06-0.26-0.37-0.51-0.56-0.54c0.18,0.5-0.66,0.63-0.75,0.83
		c-0.14,0.32-0.35,0.58-0.38,0.91c-0.71-0.98-0.13-2.16,0.53-3.07c0.97-1.33,2.98-0.63,3.83,0.23c0.02-0.43-0.32-0.98-0.6-1.25
		c0.79-0.1,1.65,0.38,2.73-0.19c0.62-0.33,1.25-0.61,1.54-1.35c-1.32,0.18-3.12-0.84-4.31-1.05c-2.23-0.39-3.72,1.13-4.52,2.94
		c-0.79,1.81-0.28,3.16,0.58,4.51c0.22,0.34-0.76,0.12-1.15,0.32c-0.38,0.19-0.53,0.66-0.44,1.07c0.48-0.51,1.73-0.19,1.85,0.68
		c0.16,1.18-1.03,2.89-2.18,2.38c-1.23-0.55-1.92-1.84-2.33-3.3c-1.05,0.9-2.99,0.16-3.89,1.04c-0.86,0.84,1.33,1.41,2.19,1.8
		c0.31,0.15,0.63,0.47,0.58,0.87c-1.34-0.79-2.95,0.1-2.87,1.53c0.06,1.07,1.37,1.73,2.45,1.82c0.45,0.04,0.73,0.54,0.17,0.89
		c-0.97,0.6-2.04,1.28-3.08,0.19c-0.17-0.18-0.8-0.07-0.92,0.26c-0.06,0.16-0.08,0.41-0.05,0.57c0.06-0.1,0.12-0.24,0.21-0.23
		c0.1,0.01,0.23,0.12,0.21,0.2c-0.09,0.54-0.79,0.19-1.01,0.61c-0.01,0.01-0.02,0.02-0.02,0.03c-0.01,0.04-0.03,0.06-0.05,0.1
		c-0.14,0.28-0.34,0.46,0.01,0.68c-0.01-0.05,0.17,0.23,0.17,0.27c0.02-0.26,0.28-0.25,0.28-0.25l0.15,0.02L11.52,24.52z
		 M6.96,19.47c0.11,0.02,0.21,0.15,0.12,0.24c-0.09,0.09-0.23,0.14-0.3,0.28c-0.07,0.14-0.03,0.4,0.03,0.5
		c0.06,0.1,0.18,0.17,0.27,0.24c0.02,0.01,0.12,0.1,0.14,0.11c0-0.04-0.08-0.09,0-0.19c0.02-0.02,0.11-0.06,0.14-0.05
		c0.15,0.1,0.26,0.12,0.44,0.07c0.13-0.03,0.18-0.05,0.28-0.14c0.17-0.17,0.18-0.35,0.32-0.53l0.29-0.2
		c0.24-0.12,1.2,0.43,0.52,1.12c0.74-0.47,2.06-1.16,3.1-0.75c-0.65-1.03-0.09-2.6,1.09-3c-1.33-1.27-2.44-1.2-2.94,0.12
		c-0.25,0.66,0.52,1.43-0.25,1.76c-0.43,0.18-0.87,0.07-1.28-0.08c-0.8-0.28-0.31-1.3-0.96-1.83c-0.44-0.35-1.49-0.29-1.49,0.59
		c0.05-0.05,0.15-0.15,0.23-0.06c0.17,0.46,0.17,0.59,0.62,0.7c0.1,0.03-0.04,0.25-0.12,0.23c-0.14-0.04-0.31-0.03-0.45-0.09
		c-0.17-0.08-0.37-0.09-0.55-0.04c-0.12,0.04-0.23,0.11-0.32,0.2c-0.03,0.03-0.06,0.06-0.09,0.1c-0.04,0.05-0.06,0.1-0.09,0.15
		c-0.06,0.12-0.05,0.25-0.05,0.37c0,0.05-0.01,0.09,0.01,0.14c0.02,0.04,0.02,0.09,0.04,0.12c0.04,0.04,0.07,0.09,0.12,0.13
		c0.14,0.13,0.31,0.25,0.5,0.26c-0.03-0.02-0.04-0.08-0.05-0.11c-0.02-0.06,0-0.12,0.03-0.18c0.05-0.09,0.16-0.05,0.24-0.09
		C6.72,19.5,6.86,19.45,7,19.49 M32.47,7.83c0.09,0.06-0.01,0.23-0.11,0.26c-0.13,0.04-0.31-0.02-0.42,0.02
		c-0.5,0.18-0.5,1.41-0.43,1.27c0.07-0.16,0.44-0.05,0.68-0.01c0.39,0.08,0.68-0.7,0.93-0.68c0.6,0.05,1.16,0.8,1.39,1.29
		c0.04,0.09-0.25,0.09-0.27,0.39c0.82-0.08,1.51,0.45,2.1,0.94c0.29-0.5,0.58-0.81,0.9-1.13c-1.23-1.2-3.67-1.56-3.29-3.74
		c0.05-0.28-0.27-0.53-0.41-0.66c-0.16-0.15-0.52-0.16-0.74-0.21c0.23,0.48-0.19,0.53-0.13,1.3c0,0.02-0.07,0.01-0.1,0
		c-0.15-0.06-0.27-0.16-0.41-0.24c-0.13-0.08-0.24-0.06-0.38-0.04c-0.09,0.01-0.16,0.05-0.23,0.1c-0.12,0.08-0.18,0.19-0.26,0.31
		c-0.02,0.02-0.03,0.05-0.05,0.07c-0.03,0.03-0.08,0.11-0.08,0.15c0.06-0.01,0.26,0.01,0.3,0.06c0.06,0.09,0.06,0.19,0.13,0.28
		c0.08,0.11,0.15,0.11,0.28,0.16c0.19,0.08,0.36,0.12,0.57,0.1 M35.65,6.95c-0.2,0.02-0.49-0.15-0.74-0.11
		c0.6,0.94,1.74,1.19,2.68,0.44c0.1-0.08,0.28-0.05,0.43,0.02C37.18,6.3,36.42,6.89,35.65,6.95 M38.97,9.73
		c-0.87,0.44-3.2,2.42-2.39,3.17c-0.1-0.09,1.26,0.32,1.74,0.8c0.1,0.1,0.51-0.95,2.24-0.9c0.49,0.02,0.99,0.2,1.43,0.47
		c-0.27-1.95,1.05-3.84,0.39-5.75c-0.02-0.04-0.25-0.8-0.35-0.5C41.5,8.58,40.23,9.1,38.97,9.73 M35.52,22.43
		c0.17,0.26-0.06-0.15,0.14,0.3c0.91-0.38,1.86-0.82,2.87-0.41c-0.45-2.05,1.05-2.55,1.17-2.86c0.19-0.49-0.81-1.47-1.56-1.2
		c-0.96,0.34-0.56,1.56-0.74,2.41c-0.1,0.47-0.68,0.81-1.17,0.65c-0.8-0.27-1.12-1.02-1.31-1.85c-0.13-0.55-1.21-0.62-1.44-0.17
		c-0.66,1.29,0.39-0.15,0.33,0.83c-0.01,0.17-0.77,0.04-0.94,0.62c-0.12,0.39,0.26,0.66,0.73,0.8c0.09,0.02-0.09-0.2,0.03-0.24
		c0.09-0.03,0.43,0.15,0.39,0.18c-0.45,0.28-0.57,0.92,0.24,1.2c0.01,0-0.06-0.23,0-0.28c0.63-0.47,1.29,0.04,1.3,0.02 M21.8,35.4
		c0.65,1.37,1.87,0.5,2.86,0.34c-0.16-0.19-0.72-0.55-0.86-0.53C22.81,35.37,22.56,35.75,21.8,35.4 M21.4,36.2
		c-0.05-0.05-0.11-0.07-0.17-0.1c-0.06-0.03-0.13-0.05-0.2-0.06c-0.02-0.01-0.14-0.03-0.16-0.04c0,0.04,0.05,0.16,0.02,0.19
		c-0.08,0.08-0.11,0.06-0.17,0.15c-0.02,0.04-0.05,0.08-0.06,0.12c-0.02,0.09-0.06,0.19-0.07,0.29c0,0.05,0.02,0.17,0.03,0.21
		c0.01,0.03,0.06,0.13,0.08,0.16c0,0,0.12,0.13,0.11,0.12c0.14,0.14,0.03,0.06,0.2,0.23c0.09,0.08-0.04,0.23-0.12,0.2
		c-0.59-0.17-0.67-0.85-1.2-1.06c-0.39-0.15-0.95,0.15-1.01,0.74c0.13-0.04,0.27,0.01,0.29,0.12c0.14,0.6,1.02,0.24,1.04,0.66
		c0.02,0.28-0.65-0.05-0.92,0.13c-0.35,0.23-0.4,0.91-0.09,1.3c0.32-0.3,0.71,0.14,1.02-0.08c0.22-0.15,0.29-0.37,0.52-0.47
		c0.67-0.3,0.87,0.32,0.72,0.94c0.36-0.17,1.22-0.34,1.41-0.4c0.35-0.1,0.37-0.91,0.8-1.21c-0.61,0-1.37-0.27-1.54-0.87
		c-0.02-0.06,0.03-0.14,0.03-0.21c0.02-0.23-0.01-0.45-0.09-0.66c-0.01-0.02-0.03-0.05-0.05-0.08c-0.02-0.03-0.05-0.07-0.07-0.1
		c-0.06-0.08-0.15-0.12-0.24-0.18C21.47,36.23,21.42,36.23,21.4,36.2 M16.88,40.43c0.27,0.52-1.06-0.31-1.55,0.46
		c-0.16,0.25-0.07,0.81-0.07,1.12c0.3-0.28,0.61,0.25,1.18-0.25c0.06,0.06,0.13,0.09,0.04,0.18c-0.21,0.21-0.33,0.48-0.22,0.73
		c0.07,0.17,0.54,0.5,0.55,0.47c0.05-0.34,0.63,0,0.72-0.67c0.04-0.28,0.12-0.74,0.52-0.57c0.36,0.15,0.44,0.56,0.36,0.98
		c0.58-0.19,1.6-0.79,2.22-0.35c0.82,0.59,2.17,0.84,3.13,1.14c-0.64-0.44-0.84-1.6-0.73-2.35c-1.51,0.3-3.1,0.25-4.5-0.4
		c-0.38-0.18-0.33-0.62-0.45-0.99c-0.13-0.41-0.65-0.79-1.12-0.75c-0.25,0.02-0.86,0.55-0.74,0.57c-0.04-0.01-0.04,0.08-0.06,0.11
		c0.11-0.07,0.26,0,0.31,0.12c0.04,0.09,0.07,0.18,0.15,0.25C16.69,40.32,16.84,40.34,16.88,40.43 M20.51,48.69
		c0.29-0.36,0.54-0.17,0.67-0.17c0.31,0.01,0.28,0.44,0.25,0.72c1.2-0.58,2.35-1.41,3.76-1.11c-0.82-0.86-0.53-2.71,0.63-2.93
		c0,0-0.75-0.12-0.83-0.17c-1.01-0.64-2.25-1.25-2.92,0.09c-0.34,0.67,0.28,1.21,0.75,1.76c0.08,0.1-0.05,0.16-0.16,0.19
		c-1.11,0.28-3.14,0.45-3.23-1.2c-0.01-0.17-0.44-0.3-0.71-0.3c-0.82,0.03-0.81,1.07-0.71,1c0.18-0.13,0.73-0.09,0.66,0.33
		c-0.06,0.39-0.82-0.21-1.13,0.19c-0.25,0.33-0.25,0.86-0.07,1.22c-0.04-0.13,0.12-0.23,0.2-0.24c0.85-0.14,0.9,0.15,0.64,0.97
		c-0.02,0.06,0.25,0.58,0.43,0.63c-0.01-0.01-0.01-0.12,0.01-0.16c0.02-0.04,0.07-0.07,0.11-0.08c0.09-0.03,0.19-0.03,0.28-0.05
		c0.04-0.01,0.08-0.04,0.12-0.07c0.07-0.04,0.11-0.1,0.16-0.16c0.2-0.25,0.37-0.56,0.7-0.6C20.27,48.54,20.37,48.61,20.51,48.69
		 M29.28,52.53c0.77-0.77,1.34-1.8,2.16-2.55c-0.91-0.54-2.04-1.09-2.15-2.3c-0.01-0.08,0.13-0.17,0.16-0.16
		c1.26,0.71,2.97,0.77,3.88-0.53c0.73-1.04,1.05-2.74,2.49-2.83c-0.48-0.92,0.06-1.98,0.84-2.46c-0.27-0.1-0.61-0.32-0.9-0.26
		c-0.36,0.06-0.52,0.55-0.93,0.63c0.65-2.19-0.61-5.25-3.02-5.19c-0.45,0.01-1.04,0.37-1.18,0.87c-0.14,0.46-0.21,1.05,0.12,1.45
		c0.79,0.95,1.36,1.98,1.11,3.22c0.56-0.48,1.08-1.2,1.06-1.96c0-0.19,0.34-0.06,0.4-0.13c0.66-0.97-0.42-1.56-0.99-2.17
		c-0.16-0.17,0.24-0.42,0.3-0.4c2.07,0.62,2.26,3.16,1.38,4.82c-0.24-0.3-1.11-0.2-1.41-0.3c0.97,0.49,0.72,0.56,0.68,0.72
		c-0.07,0.29-0.94,0.17-1.11,0.38c-0.29,0.37-0.51,0.53-0.53,1.77c0.4-0.43,0.93-1.09,1.5-0.8c1.22,0.62-0.06,2.73-1.21,3.08
		c-0.98,0.29-1.89-0.02-2.49-0.87c-0.88-1.23-0.24-2.73-0.86-3.98c-0.52,0.13-0.4,0.81-0.67,0.68c-0.96-0.44-1.5-1.46-2.19-2.32
		c-0.29,0.1-0.41,0.37-0.69,0.36c-0.41-0.02-1.18-0.14-1.35,0.06c-0.19,0.24-0.33,1.98,1.36,2.6c1.15,0.43,2.06,0.81,2.78,1.7
		c-0.49,0.04-0.65-0.2-1.05-0.21c-0.39-0.01-0.64,0.14-0.93,0.29c-0.28,0.15-0.61,0.7-0.56,1.14c0.26,2.1,2.73,2.13,3.87,3.46
		c0.2,0.22-0.3,1.14-0.76,1.51c-0.4,0.32-1.35-0.48-1.19-1.15c0.12-0.54-1.17-0.9-1.63-0.28c0.18-0.02,0.23,0.1,0.21,0.18
		c-0.08,0.5,0.53,0.51,0.51,0.76c-0.03,0.35-0.33-0.14-0.57-0.19c-0.52-0.11-1.04,0.08-1.35,0.5c-0.09,0.12-0.3,0.33-0.21,0.54
		c0.4-0.2,0.61,0.43,0.98,0.23c0.23-0.11,0.41-0.32,0.69-0.25c0.11,0.03,0.22,0.18,0.12,0.24c-0.73,0.47-1.31,1.12-0.78,1.87
		c0.01-0.17,0.15-0.3,0.26-0.33c0.21-0.06,0.49,0.09,0.7,0.02c0.34-0.11,0.16-0.45,0.29-0.69c0.2-0.38,0.89-1.01,1.28-0.55
		c0.07,0.08,0.02,0.39-0.19,0.39c0.21,0,0.41,0.21,0.59,0.17c0.05-0.01,0.11-0.01,0.15-0.03c0.04-0.02,0.09-0.03,0.12-0.06
		c0.09-0.09,0.18-0.18,0.2-0.31c0.16,0.01,0.35,0.03,0.46-0.1c0.1-0.13,0.22-0.24,0.33-0.34 M25.76,37.32
		c-1.33,0.37-2.08,1.56-2.48,2.74c-0.03,0.08-0.06,0.17-0.09,0.47c-0.01,0.12,0.76-0.81,1.3-0.53c0.03,0.12-0.11,0.68-0.27,0.82
		c0.69-0.1,1.61-0.21,2.06-0.7c0.07-0.08,0.03,0.48,0.14,0.74c0.29,0.69,0.92,1.22,1.51,1.59c0.16,0.09,0.14-0.31,0.46-0.57
		c0.26-0.21,0.74,0.24,0.96,0.34c0.19,0.08-0.22-0.62-0.27-0.84c-0.4-1.98,0.42-3.6,0.39-5.49c0-0.34-0.13-0.9-0.54-1.15
		C28.62,36.24,27.12,36.94,25.76,37.32 M14.74,5.95c-0.43,0.2-1.42,0.34-1.25-0.08c0.25-0.61,0.84-0.68,1.33,0.01
		C14.82,5.88,14.79,5.92,14.74,5.95 M15.7,5.21c-0.57,0.01-1.08-0.48-1.64-0.27c-0.64,0.24-1.26,0.54-1.95,0.72
		C11.87,5.73,11.44,6,11.55,6.45c0.65-0.25,1.51-0.59,1.93,0.14c0.25,0.44,0.16,0.84-0.03,1.37c-0.15,0.43-0.92,0.56-1.49,0.49
		c0.1,0.07,0.21,0.3,0.12,0.46c1.3-0.33,3.19,0.16,4.06-1.31c0.29-0.5-0.11-0.99,0.03-1.49c0.07-0.25,0.4-0.4,0.54-0.67
		c0.11-0.21-0.18-0.49-0.16-0.69C16.31,4.99,16.05,5.2,15.7,5.21 M39.89,5.68c-0.47,0.25-1.66,0.62-1.48,0.09
		C38.66,5.06,39.35,5.41,39.89,5.68C39.84,5.73,39.94,5.65,39.89,5.68 M40.66,8.05c0.55-0.26,0.58-0.99,0.79-1.51
		c0.14-0.35,0.55-0.33,0.7-0.73c0.05-0.11,0.05-0.68-0.04-0.64c-0.35,0.15-0.89,0.39-1.26,0.28c-1.24-0.35-1.56-0.98-2.75-0.1
		c-0.35,0.26-1.04-0.02-1.48,0.55C36.55,6,36.57,6.25,36.57,6.39c0.62,0.03,1.52-0.67,1.9,0.05c0.06,0.12,0.13,0.24,0.14,0.37
		c0,0.02,0.01,0.05,0.01,0.08c0.03,0.17,0.02,0.34,0,0.5c-0.02,0.22-0.12,0.39-0.26,0.56C38.31,8,38.24,8.03,38.19,8.07
		c-0.02,0.02-0.05,0.04-0.07,0.06c-0.07,0.05-0.15,0.08-0.22,0.11c-0.06,0.03-0.11,0.04-0.18,0.05c-0.04,0.01-0.08,0.01-0.11,0.01
		c-0.01,0-0.21-0.02-0.22-0.02c-0.15,0.01-0.17-0.07-0.27,0.02c-0.08,0.06-0.09,0.17-0.1,0.27c0.09,0,0.19,0.02,0.28,0.05
		c0.13,0.05,0.27,0.08,0.41,0.11c0.25,0.04,0.29,0.02,0.54,0.03c0.1,0,0.42-0.01,0.53-0.01c0.1,0,0.15,0,0.26-0.02
		c0.17-0.02,0.13,0,0.32-0.05c0.07-0.02,0.25-0.1,0.32-0.14c0.13-0.08,0.25-0.17,0.38-0.26c0.21-0.14,0.52-0.14,0.71-0.3
		 M25.84,34.44c-0.07-0.02-0.14-0.05-0.19-0.11c-0.06-0.07-0.08-0.2-0.06-0.29c0.02-0.08,0.07-0.13,0.13-0.18
		c0.06-0.05,0.15-0.05,0.21-0.08c0.04-0.02,0.06-0.06,0.11-0.08c0.04-0.01,0.07-0.02,0.1-0.01c0.13,0.02,0.23,0.12,0.36,0.13
		c0.18,0.02,0.34,0.03,0.52,0.07c0.01,0,0.02,0.02,0.01,0.02c-0.04,0.05-0.08,0.1-0.14,0.13C26.68,34.17,26.05,34.52,25.84,34.44
		 M27.47,33.48c-0.83-0.19-1.49-0.4-2.09,0.01C25.4,33.48,24.92,34,24.94,34c-0.92-0.05-1.51,0.57-1.37,0.95
		c0.34-0.15,0.67-0.45,1.04-0.25c0.32,0.17,0.47,1.03,0.34,1.38c-0.1,0.25-0.43,0.57-0.86,0.59c-0.2,0.01-0.09,0.28-0.1,0.43
		c1.23-0.1,2.57-0.79,3.64-1.36c0.54-0.29,0.53-0.84,0.72-1.4c0.13-0.36,0.81-0.46,0.64-1.2C28.62,33.63,28.02,33.61,27.47,33.48
		 M44.18,28.26c-0.02-0.18,0.43-0.72,0.45-1.12c0.04-1.35,0.85-1.98,0.88-3.43c0.01-0.38-1.55-0.73-1.62-1.54
		c-0.03-0.4-0.17-0.98,0.24-0.97c0.52,0.01,1.02-0.08,1.39-0.41c1.63-1.43,0.25-3.39,0.06-5.12c-0.04-0.38,0.66-1.2,0.64-1.47
		c-0.11-1.47-0.38-2.81,0.14-4.25c-0.41,0.37-0.53,0.97-0.88,1.28c-0.17,0.15-0.25-0.19-0.24-0.24c0.21-1.27,0.71-2.38,1.3-3.58
		c0.69-1.43,0.35-2.59-0.94-3.01c-1.18-0.39-2.32,0.7-2.44,1.83c-0.12,1.03,0.2,2.27,0.45,3.12c0.07,0.25,0.03,0.53,0.08,0.74
		c0.21-0.86,0.23-1.75,0.22-2.65c0-0.22,0.17-0.52,0.4-0.58c0.77-0.22,1.16,0.33,1.11,0.76c-0.17,1.35-0.44,2.39-0.77,3.74
		c-0.37,1.53,0.18,3.06,0.34,4.55c-0.59-0.35-1.23-0.36-1.46,0.55c-0.12,0.49,0.32,1,0.45,1.43c0.01-0.59,0.57-1.39,1.11-1.03
		c0.66,0.44,0.68,2.54,0.54,2.82c-0.32,0.61-0.85,1.05-1.58,0.83c-0.41-0.12-0.24-0.73-0.49-0.99c-1.31-1.36-1.91-2.98-2.02-4.86
		c-0.02-0.27,0.12-1,0.09-1.01c-1.72-0.71-2.51,0-3.22,1.01c-0.12-0.31-0.78-0.74-0.83-0.64c-0.33,0.6-0.23,1.7,0.26,2.13
		c1.32,1.15,2.64,1.91,3.38,3.55c-0.79,0.1-1.57,0.33-1.87,1.16c-0.32,0.87-0.21,2.07,0.71,2.42c0.75,0.29,2.03-0.03,2.31,0
		c0.79,0.1,1.68,0.79,1.55,1.54c-0.01,0.04-0.34,1.79-1.1,1.35c-0.41-0.23-0.18-1.19-0.81-1.35c-0.84-0.2-1.05,0.97-0.94,0.87
		c0.27-0.26,0.45,0.17,0.98,0.46c-1.76-0.38-1.22,1.23-1.15,1.06c0.09-0.25,0.41,0.01,1.04-0.03c0.02,0-0.14,0.13-0.15,0.15
		c-0.1,0.16-0.15,0.24-0.22,0.41c-0.03,0.08-0.03,0.17-0.02,0.25c0.01,0.09,0.04,0.16,0.08,0.24c0.01,0.02,0.03,0.03,0.04,0.04
		c0.01,0,0.03,0.04,0.04,0.04c0.04,0.01-0.04-0.12,0.07-0.13c0.02,0,0.1-0.01,0.12-0.01c0.05,0.02,0.11,0.05,0.15,0.06
		c0.05,0.01,0.09,0.02,0.14,0.03c0.12,0.02,0.16,0.02,0.27-0.02c0.09-0.03,0.18-0.05,0.26-0.11c-0.11,0.08,0.12-0.11,0.11-0.09
		c0.11-0.23,0.18-0.17,0.2-0.21c0.19-0.36,0.35-0.39,0.76-0.34c0.04,0,0.12,0.09,0.14,0.13c0.03,0.04,0.11,0.27,0.1,0.19
		C44.06,28,44.16,28.1,44.18,28.26 M31.64,12.34c0.09,0.08-0.13,0.16-0.18,0.09c-0.77-0.91-2.07-0.78-1.97,0.67
		c0.49-0.25,0.56,0.43,0.88,0.24c0.27-0.16,0.5-0.35,0.78-0.22c0.17,0.08,0.12,0.39-0.02,0.44c-1.42,0.5-0.28,1.43-0.5,1.63
		c0.2-0.17,0.79-0.17,1.34-1.01c0.12-0.17,0.8-0.19,1.05-0.11c0.39,0.12-0.03,0.71,0.15,0.68c0.42-0.07,1.3,0.41,1.67,0.77
		c0.84,0.8,1.49,0.69,2.46,1.21c-0.67-0.61-0.67-1.67-0.46-2.51c-0.86,0.01-1.71-0.25-2.55-0.45c-1.61-0.4-1.51-2.06-1.8-2.73
		l-0.1-0.11c-0.08-0.28-0.43-0.4-0.7-0.44c-0.03,0-0.06-0.01-0.09-0.02c-0.07-0.02-0.15-0.02-0.22-0.02
		c0.09,0.03,0.09,0.13,0.04,0.19c-0.01,0.01-0.01,0.03-0.02,0.02c0.01,0.03-0.03,0.03-0.03,0.05c-0.01,0.02-0.04,0.03-0.05,0.05
		c-0.01,0.01,0,0.02-0.01,0.03c-0.23,0.17-0.26,0.46-0.19,0.72c0.02,0.05,0.03,0.1,0.07,0.14c0.02,0.03,0.04,0.05,0.07,0.08
		c0.07,0.07,0.11,0.23,0.22,0.3L31.64,12.34z"/>
	<path d="M49.06,5.68c-0.2,9.57-0.4,18.77-3.21,27.66L26,17.57L6.06,33.38c-2.83-8.9-3.02-18.12-3.22-27.71
		C2.82,4.76,2.8,3.84,2.78,2.93h46.34C49.1,3.85,49.08,4.76,49.06,5.68 M40.42,44.85c-3.26,5-8.26,9.19-14.46,12.11
		c-6.21-2.92-11.22-7.1-14.48-12.11c-0.55-0.84-1.05-1.68-1.53-2.53L26,29.6l15.98,12.69C41.49,43.14,40.98,44,40.42,44.85
		 M7.03,36.14L26,21.11L44.89,36.1c-0.48,1.24-1.01,2.47-1.6,3.69L26,26.07L8.64,39.84C8.04,38.61,7.51,37.38,7.03,36.14 M1.84,2.01
		l0.01,0.47C1.88,3.55,1.9,4.62,1.92,5.69c0.29,13.91,0.56,27.05,8.79,39.67c3.39,5.21,8.6,9.54,15.06,12.53l0.19,0.09l0.19-0.09
		c6.45-3,11.65-7.33,15.04-12.53c8.22-12.61,8.5-25.75,8.79-39.65c0.02-1.07,0.05-2.14,0.07-3.22l0.01-0.47H1.84z"/>
</g>
</svg>
