<?xml version="1.0" encoding="UTF-8" standalone="no"?>
<svg
   xmlns:dc="http://purl.org/dc/elements/1.1/"
   xmlns:cc="http://creativecommons.org/ns#"
   xmlns:rdf="http://www.w3.org/1999/02/22-rdf-syntax-ns#"
   xmlns:svg="http://www.w3.org/2000/svg"
   xmlns="http://www.w3.org/2000/svg"
   viewBox="0 0 221.33333 66"
   height="66"
   width="221.33333"
   xml:space="preserve"
   version="1.1"
   id="svg2"><metadata
     id="metadata8"><rdf:RDF><cc:Work
         rdf:about=""><dc:format>image/svg+xml</dc:format><dc:type
           rdf:resource="http://purl.org/dc/dcmitype/StillImage" /></cc:Work></rdf:RDF></metadata><defs
     id="defs6"><clipPath
       id="clipPath16"
       clipPathUnits="userSpaceOnUse"><path
         id="path18"
         d="m 7.68,7.055 152.468,0 0,36.406 -152.468,0 0,-36.406 z" /></clipPath><clipPath
       id="clipPath116"
       clipPathUnits="userSpaceOnUse"><path
         id="path118"
         d="m 7.68,7.056 152.468,0 0,36.405 -152.468,0 0,-36.405 z" /></clipPath></defs><g
     transform="matrix(1.3333333,0,0,-1.3333333,0,66)"
     id="g10"><g
       id="g12"><g
         clip-path="url(#clipPath16)"
         id="g14"><g
           transform="translate(48.3848,11.023)"
           id="g20"><path
             id="path22"
             style="fill:#522d80;fill-opacity:1;fill-rule:nonzero;stroke:none"
             d="m 0,0 -1.214,0 0,1.965 1.207,0 C 0.863,1.965 1.34,1.712 1.34,0.997 1.34,0.245 0.856,0 0,0 M 1.838,1.017 C 1.838,1.93 1.193,2.42 0.035,2.42 l -1.74,0 0,-5.191 0.491,0 0,2.329 1.291,0 1.27,-2.329 0.561,0 -1.312,2.386 c 0.751,0.139 1.242,0.56 1.242,1.402" /></g><g
           transform="translate(41.5023,30.0011)"
           id="g24"><path
             id="path26"
             style="fill:#522d80;fill-opacity:1;fill-rule:nonzero;stroke:none"
             d="m 0,0 c 0.171,2.335 1.022,4.596 3.481,4.596 2.617,0 3.193,-2.045 3.251,-4.209 0.004,-0.202 0.007,-0.902 0.007,-1.094 l -6.767,0 c 0,0.209 0.013,0.488 0.028,0.707 m 4.609,-9.73 c -4.042,0 -4.637,3.08 -4.637,7.801 l 0,0.25 10.401,0 c 0,4.198 -2.327,7.081 -6.673,7.081 -4.74,0 -7.3,-3.654 -7.3,-8.051 0,-4.586 2.402,-8.052 7.269,-8.052 3.012,0 5.457,1.138 6.736,4.466 l -0.734,0.24 C 8.787,-8.074 7.312,-9.73 4.609,-9.73" /></g><g
           transform="translate(55.1138,11.1144)"
           id="g28"><path
             id="path30"
             style="fill:#522d80;fill-opacity:1;fill-rule:nonzero;stroke:none"
             d="m 0,0 c -1.094,0.351 -1.438,0.547 -1.438,1.129 0,0.478 0.421,0.85 1.115,0.85 0.653,0 1.109,-0.267 1.368,-0.941 L 1.466,1.235 C 1.221,1.93 0.66,2.428 -0.316,2.428 c -0.947,0 -1.613,-0.59 -1.613,-1.333 0,-0.857 0.568,-1.158 1.684,-1.509 1.101,-0.351 1.361,-0.624 1.361,-1.164 0,-0.583 -0.505,-0.94 -1.284,-0.94 -0.73,0 -1.256,0.371 -1.487,1.094 l -0.442,-0.161 c 0.245,-0.842 0.933,-1.375 1.908,-1.375 1.038,0 1.803,0.553 1.803,1.417 C 1.614,-0.702 1.081,-0.344 0,0" /></g><g
           transform="translate(60.3174,20.1621)"
           id="g32"><path
             id="path34"
             style="fill:#522d80;fill-opacity:1;fill-rule:nonzero;stroke:none"
             d="m 0,0 c -3.064,0 -4.866,1.993 -5.535,4.919 l -0.763,0 1.026,-5.614 c 0.332,0.388 0.767,0.529 1.204,0.529 0.884,0 2.003,-0.676 3.992,-0.676 3.194,0 5.607,1.777 5.607,4.805 0,6.053 -8.686,4.455 -8.686,8.368 0,1.245 0.887,2.166 2.488,2.166 2.539,0 3.958,-1.793 4.568,-3.923 l 0.752,0 -0.867,4.798 c -0.29,-0.326 -0.677,-0.506 -1.151,-0.506 -1.056,0 -1.706,0.438 -3.321,0.438 -2.763,0 -4.904,-1.502 -4.904,-4.228 0,-5.579 8.552,-4.388 8.552,-8.398 C 2.962,0.862 1.64,0 0,0" /></g><g
           transform="translate(17.8379,10.0761)"
           id="g36"><path
             id="path38"
             style="fill:#522d80;fill-opacity:1;fill-rule:nonzero;stroke:none"
             d="m 0,0 c 0,-0.863 -0.428,-1.466 -1.389,-1.466 -0.968,0 -1.396,0.631 -1.396,1.48 l 0,3.353 -0.498,0 0,-3.437 c 0,-1.031 0.61,-1.845 1.887,-1.845 1.263,0 1.894,0.828 1.894,1.859 l 0,3.423 L 0,3.367 0,0 Z" /></g><path
           id="path40"
           style="fill:#522d80;fill-opacity:1;fill-rule:nonzero;stroke:none"
           d="m 59.879,8.252 0.498,0 0,5.191 -0.498,0 0,-5.191 z" /><g
           transform="translate(25.3025,9.1645)"
           id="g42"><path
             id="path44"
             style="fill:#522d80;fill-opacity:1;fill-rule:nonzero;stroke:none"
             d="m 0,0 -0.014,0 -2.862,4.279 -0.534,0 0,-5.191 0.47,0 0,4.412 0.014,0 2.954,-4.412 0.442,0 0,5.191 L 0,4.279 0,0 Z" /></g><g
           transform="translate(40.6478,41.4603)"
           id="g46"><path
             id="path48"
             style="fill:#522d80;fill-opacity:1;fill-rule:nonzero;stroke:none"
             d="m 0,0 0,0.768 -6.369,0 0,-0.768 2.817,0 -0.737,-2.56 -4.416,-13.507 -0.063,0 -4.961,13.57 -0.865,2.497 3.168,0 0,0.768 -9.795,0 0,-0.768 2.721,0 1.601,-4.32 -4.066,-11.747 -0.064,0 -4.897,13.507 -0.863,2.56 2.816,0 0,0.768 -8.995,0 0,-0.768 2.177,0 1.151,-3.04 7.01,-19.077 0.641,0 c 0,0 4.29,12.292 5.664,16.26 l 6.05,-16.26 0.674,0 6.337,19.301 L -2.272,0 0,0 Z" /></g><g
           transform="translate(40.8847,10.7707)"
           id="g50"><path
             id="path52"
             style="fill:#522d80;fill-opacity:1;fill-rule:nonzero;stroke:none"
             d="m 0,0 1.943,0 0,0.449 -1.943,0 0,1.761 2.603,0 0,0.463 -3.101,0 0,-5.191 3.248,0 0,0.455 -2.75,0 L 0,0 Z" /></g><g
           transform="translate(35.3278,8.9116)"
           id="g54"><path
             id="path56"
             style="fill:#522d80;fill-opacity:1;fill-rule:nonzero;stroke:none"
             d="m 0,0 -0.014,0 -1.551,4.532 -0.512,0 1.825,-5.212 0.47,0 1.823,5.212 -0.483,0 L 0,0 Z" /></g><path
           id="path58"
           style="fill:#522d80;fill-opacity:1;fill-rule:nonzero;stroke:none"
           d="m 29.638,8.252 0.498,0 0,5.191 -0.498,0 0,-5.191 z" /><g
           transform="translate(71.2057,10.9671)"
           id="g60"><path
             id="path62"
             style="fill:#522d80;fill-opacity:1;fill-rule:nonzero;stroke:none"
             d="m 0,0 -1.46,2.476 -0.54,0 1.741,-2.922 0,-2.269 0.497,0 0,2.269 1.747,2.922 -0.533,0 L 0,0 Z" /></g><g
           transform="translate(101.829,9.1645)"
           id="g64"><path
             id="path66"
             style="fill:#522d80;fill-opacity:1;fill-rule:nonzero;stroke:none"
             d="m 0,0 -0.014,0 -2.863,4.279 -0.533,0 0,-5.191 0.47,0 0,4.412 0.015,0 2.953,-4.412 0.442,0 0,5.191 L 0,4.279 0,0 Z" /></g><g
           transform="translate(114.8322,8.687)"
           id="g68"><path
             id="path70"
             style="fill:#522d80;fill-opacity:1;fill-rule:nonzero;stroke:none"
             d="m 0,0 -0.898,0 0,4.308 0.884,0 c 1.302,0 2.038,-0.664 2.038,-2.14 C 2.024,0.657 1.295,0 0,0 m -0.072,4.757 -1.312,0 0,-5.191 1.312,0 c 1.669,0 2.581,0.89 2.581,2.602 0,1.712 -0.891,2.589 -2.581,2.589" /></g><g
           transform="translate(106.6372,33.2852)"
           id="g72"><path
             id="path74"
             style="fill:#522d80;fill-opacity:1;fill-rule:nonzero;stroke:none"
             d="m 0,0 c 0,1.241 -0.919,2.181 -2.623,2.181 -2.548,0 -3.813,-2.287 -4.471,-4.104 l -0.04,0 0,4.23 C -7.641,1.891 -8.154,1.49 -9.506,1.49 l -3.518,0 0,-0.783 2.694,0 0,-13.533 -2.694,0 0,-0.783 8.49,0 0,0.783 -2.6,0 0,6.673 c 0,3.55 1.743,7.405 3.983,7.405 0.167,0 0.28,-0.019 0.371,-0.062 -0.384,-0.309 -0.63,-0.782 -0.63,-1.314 0,-0.985 0.756,-1.688 1.688,-1.688 C -0.707,-1.812 0,-0.967 0,0" /></g><g
           transform="translate(106.8464,10.2914)"
           id="g76"><path
             id="path78"
             style="fill:#522d80;fill-opacity:1;fill-rule:nonzero;stroke:none"
             d="m 0,0 0.978,2.653 0.02,0 L 1.974,0 0,0 Z m 0.704,3.174 -1.939,-5.213 0.486,0 0.587,1.597 2.299,0 0.587,-1.597 0.522,0 -1.939,5.213 -0.603,0 z" /></g><g
           transform="translate(121.3086,10.2914)"
           id="g80"><path
             id="path82"
             style="fill:#522d80;fill-opacity:1;fill-rule:nonzero;stroke:none"
             d="m 0,0 0.978,2.653 0.02,0 L 1.974,0 0,0 Z m 0.704,3.174 -1.939,-5.213 0.486,0 0.587,1.597 2.299,0 0.587,-1.597 0.522,0 -1.939,5.213 -0.603,0 z" /></g><g
           transform="translate(123.4361,20.4592)"
           id="g84"><path
             id="path86"
             style="fill:#522d80;fill-opacity:1;fill-rule:nonzero;stroke:none"
             d="m 0,0 0,10.527 c 0,3.132 -1.535,4.48 -4.606,4.48 -2.568,0 -4.448,-1.254 -5.419,-3.384 l -0.063,0 0,3.449 c -0.422,-0.348 -0.993,-0.756 -2.385,-0.756 l -3.316,0 0,-0.783 2.506,0 0,-13.533 -2.695,0 0,-0.784 8.365,0 0,0.784 -2.475,0 0,8.145 c 0,2.914 1.501,5.734 4.335,5.734 1.593,0 2.557,-0.899 2.557,-3.258 l 0,-10.621 -2.475,0 0,-0.784 8.146,0 L 2.475,0 0,0 Z" /></g><g
           transform="translate(85.7411,8.6028)"
           id="g88"><path
             id="path90"
             style="fill:#522d80;fill-opacity:1;fill-rule:nonzero;stroke:none"
             d="m 0,0 c -1.01,0 -1.669,0.842 -1.669,2.28 0,1.333 0.651,2.203 1.655,2.203 0.792,0 1.179,-0.428 1.41,-1.249 l 0.477,0.119 c -0.245,0.962 -0.828,1.586 -1.88,1.586 -1.298,0 -2.161,-1.101 -2.161,-2.673 0,-1.656 0.849,-2.714 2.161,-2.714 1.038,0 1.712,0.637 1.965,1.662 L 1.48,1.319 C 1.256,0.449 0.772,0 0,0" /></g><g
           transform="translate(78.2274,11.3522)"
           id="g92"><path
             id="path94"
             style="fill:#522d80;fill-opacity:1;fill-rule:nonzero;stroke:none"
             d="m 0,0 c -0.306,0 -0.526,-0.22 -0.526,-0.529 0,-0.306 0.22,-0.526 0.526,-0.526 0.31,0 0.53,0.22 0.53,0.526 C 0.53,-0.22 0.31,0 0,0" /></g><g
           transform="translate(74.7095,20.5558)"
           id="g96"><path
             id="path98"
             style="fill:#522d80;fill-opacity:1;fill-rule:nonzero;stroke:none"
             d="m 0,0 c -1.194,0 -1.688,0.749 -1.688,2.597 l 0,10.84 3.855,0 0,0.783 -3.855,0 0,5.175 -0.662,0 c -0.428,-3.341 -2.104,-5.051 -5.139,-5.342 l 0,-0.616 -0.001,0 0.001,0 2.538,0 0,-10.715 c 0,-2.004 0.39,-3.915 3.649,-3.915 2.054,0 3.3,0.947 3.951,2.178 L 2.899,1.484 2.22,1.808 C 1.811,0.897 1.161,0 0,0" /></g><g
           transform="translate(82.0049,30.0011)"
           id="g100"><path
             id="path102"
             style="fill:#522d80;fill-opacity:1;fill-rule:nonzero;stroke:none"
             d="m 0,0 c 0.17,2.335 1.022,4.596 3.481,4.596 2.617,0 3.193,-2.045 3.25,-4.209 0.005,-0.202 0.008,-0.902 0.008,-1.094 l -6.767,0 c 0,0.209 0.012,0.488 0.028,0.707 m 10.405,-6.235 -0.734,0.24 C 8.788,-8.074 7.311,-9.73 4.608,-9.73 c -4.041,0 -4.636,3.08 -4.636,7.801 l 0,0.25 10.4,0 c 0,4.198 -2.326,7.081 -6.672,7.081 -4.741,0 -7.3,-3.654 -7.3,-8.051 0,-4.586 2.401,-8.052 7.269,-8.052 3.012,0 5.457,1.138 6.736,4.466" /></g><g
           transform="translate(91.8285,10.2914)"
           id="g104"><path
             id="path106"
             style="fill:#522d80;fill-opacity:1;fill-rule:nonzero;stroke:none"
             d="m 0,0 0.978,2.653 0.02,0 L 1.974,0 0,0 Z m 0.704,3.174 -1.939,-5.213 0.486,0 0.587,1.597 2.3,0 0.586,-1.597 0.522,0 -1.939,5.213 -0.603,0 z" /></g></g></g><g
       transform="translate(63.0933,12.9802)"
       id="g108"><path
         id="path110"
         style="fill:#522d80;fill-opacity:1;fill-rule:nonzero;stroke:none"
         d="m 0,0 1.676,0 0,-4.728 0.499,0 0,4.728 1.676,0 0,0.463 L 0,0.463 0,0 Z" /></g><g
       id="g112"><g
         clip-path="url(#clipPath116)"
         id="g114"><g
           transform="translate(160.147,28.3987)"
           id="g120"><path
             id="path122"
             style="fill:#ffffff;fill-opacity:1;fill-rule:nonzero;stroke:none"
             d="m 0,0 -0.002,13.09 c -3.387,1.197 -8.704,1.972 -14.7,1.972 -5.88,0 -11.115,-0.771 -14.501,-1.972 l -0.002,-13.28 c 0,-1.957 -0.088,-5.422 1.691,-9.571 2.21,-5.151 6.488,-9.024 12.594,-11.452 l 0.317,-0.13 0.314,0.128 c 6.11,2.43 10.388,6.303 12.598,11.454 C 0.09,-5.613 0,-1.877 0,0" /></g><g
           transform="translate(153.628,22.7665)"
           id="g124"><path
             id="path126"
             style="fill:#522d80;fill-opacity:1;fill-rule:nonzero;stroke:none"
             d="m 0,0 c 0.02,0.039 0.032,0.094 0.032,0.126 0,0.023 -0.003,0.054 -0.026,0.079 -0.025,0.024 -0.087,0.036 -0.15,0.036 -0.064,0 -0.132,-0.01 -0.17,-0.034 C -0.319,0.189 -0.327,0.166 -0.338,0.142 -0.219,0.141 -0.093,0.112 0,0 m 0.598,-2.612 -0.025,0 C 0.554,-2.815 0.44,-3.123 0.37,-3.235 l 0.13,0.103 0.085,-0.103 0.085,0.102 0.121,-0.102 c -0.067,0.118 -0.174,0.421 -0.193,0.623 m 1.514,-0.097 c 0.028,0.041 0.062,0.098 0.062,0.098 -0.127,0.194 -0.223,0.406 -0.206,0.651 0.019,0.265 0.168,0.345 0.284,0.34 0.104,-0.004 0.176,-0.084 0.181,-0.201 0.09,0.076 0.128,0.163 0.134,0.252 0.006,0.069 -0.029,0.175 -0.146,0.205 0.212,0.195 0.191,0.587 -0.026,0.736 C 2.426,-0.909 2.216,-1.102 2.029,-1.284 1.776,-1.528 1.743,-1.805 1.787,-2.093 c -0.15,0.289 -0.219,0.562 -0.2,0.833 0.021,0.302 0.174,0.614 0.395,0.599 0.071,-0.006 0.145,-0.041 0.174,-0.105 0.106,0.177 0.031,0.372 -0.138,0.387 C 2.191,0.038 1.91,0.456 1.677,0.547 1.738,0.421 1.767,0.295 1.756,0.15 1.728,-0.251 1.378,-0.57 1.342,-1.166 1.304,-1.811 1.663,-2.371 2.047,-2.798 c 0,0 0.032,0.041 0.065,0.089 m -2.292,0.981 -0.025,0 c -0.02,-0.202 -0.132,-0.51 -0.202,-0.622 l 0.13,0.102 0.084,-0.102 0.085,0.102 0.121,-0.102 c -0.065,0.117 -0.174,0.421 -0.193,0.622 M -0.636,0.597 C -0.654,0.564 -0.653,0.531 -0.647,0.504 -0.646,0.501 -0.634,0.486 -0.632,0.483 -0.645,0.432 -0.642,0.365 -0.622,0.272 -0.61,0.218 -0.561,0.199 -0.47,0.197 c 0.001,-0.023 0.004,-0.045 0.009,-0.065 0,-0.003 0,-0.006 0.001,-0.009 C -0.514,0.108 -0.566,0.1 -0.613,0.102 -0.756,0.111 -0.844,0.19 -0.827,0.335 c 0.004,0.026 0.011,0.048 0.026,0.072 0.005,0.012 0,0.022 -0.013,0.026 -0.051,0.019 -0.198,-0.103 -0.22,-0.27 -0.02,-0.16 0.069,-0.249 0.201,-0.256 0.072,-0.005 0.171,0.005 0.276,0.046 0.176,0.072 0.378,0.095 0.502,-0.029 -0.094,0.017 -0.335,-0.001 -0.403,-0.014 -0.104,-0.019 -0.153,-0.234 -0.04,-0.24 0.088,-0.005 0.413,0.014 0.431,0.009 -0.033,-0.141 -0.243,-0.318 -0.446,-0.361 -0.126,0.052 -0.486,0.039 -0.651,-0.01 -0.207,0.233 -0.357,0.666 -0.374,0.809 -0.008,0.066 -0.01,0.141 0.024,0.201 0.065,0.118 0.197,0.107 0.26,0.209 0.034,0.055 0.018,0.12 0.028,0.181 0.004,0.025 0.058,0.116 -0.01,0.146 C -1.264,0.818 -1.311,0.791 -1.371,0.81 -1.41,0.823 -1.453,0.836 -1.495,0.818 -1.566,0.786 -1.581,0.697 -1.637,0.638 -1.666,0.607 -1.705,0.621 -1.696,0.672 -1.682,0.754 -1.642,0.83 -1.654,0.915 -1.667,1 -1.73,1.064 -1.816,1.112 -1.854,1.132 -1.896,1.169 -1.937,1.18 -1.978,1.19 -2.012,1.175 -2.014,1.157 -1.994,1.143 -1.978,1.12 -1.977,1.087 -1.976,1.011 -2.057,0.97 -2.059,0.898 -2.061,0.788 -1.984,0.689 -1.977,0.63 -1.97,0.587 -2.009,0.586 -2.034,0.6 -2.092,0.631 -2.181,0.68 -2.263,0.682 -2.331,0.682 -2.376,0.629 -2.434,0.604 -2.459,0.595 -2.567,0.595 -2.546,0.544 -2.487,0.532 -2.443,0.494 -2.423,0.439 -2.408,0.397 -2.399,0.364 -2.36,0.335 -2.294,0.289 -2.157,0.3 -2.089,0.289 -2.046,0.281 -1.997,0.255 -1.984,0.166 -1.975,0.105 -1.997,0.035 -2.026,-0.016 -2.078,-0.107 -2.105,-0.202 -2.08,-0.291 c 0.024,0.034 0.05,0.048 0.078,0.048 0.058,0 0.075,-0.066 0.034,-0.158 -0.039,-0.081 -0.063,-0.174 -0.025,-0.28 0.017,0.035 0.047,0.058 0.08,0.058 0.052,0 0.081,-0.055 0.043,-0.157 -0.034,-0.093 -0.044,-0.182 -0.005,-0.27 0.014,0.039 0.045,0.065 0.082,0.065 0.056,0 0.079,-0.056 0.1,-0.105 0.064,-0.158 0.168,-0.24 0.425,-0.24 -0.089,-0.17 -0.834,-0.06 -1.137,-0.026 -0.065,0.008 -0.102,0.026 -0.12,0.08 -0.048,0.118 0.063,0.216 -0.002,0.342 -0.031,0.062 -0.081,0.077 -0.134,0.111 -0.024,0.016 -0.093,0.104 -0.137,0.066 0.018,-0.047 0.014,-0.087 -0.039,-0.134 -0.034,-0.03 -0.068,-0.056 -0.075,-0.107 -0.009,-0.084 0.06,-0.164 0.082,-0.238 0.02,-0.053 -0.013,-0.076 -0.059,-0.042 -0.071,0.054 -0.176,0.182 -0.286,0.182 -0.075,0 -0.096,-0.045 -0.155,-0.072 -0.027,-0.011 -0.144,-0.024 -0.133,-0.081 0.052,-0.009 0.095,-0.038 0.109,-0.106 0.01,-0.046 0.02,-0.091 0.06,-0.122 0.101,-0.076 0.259,-0.042 0.352,-0.062 0.037,-0.007 0.043,-0.039 0.007,-0.06 -0.078,-0.047 -0.189,-0.077 -0.228,-0.156 -0.032,-0.064 -0.012,-0.137 -0.013,-0.2 -10e-4,-0.028 -0.038,-0.116 0.023,-0.135 0.032,0.042 0.074,0.073 0.145,0.063 0.047,-0.006 0.085,-0.027 0.132,-0.004 0.077,0.04 0.084,0.111 0.125,0.177 0.021,0.034 0.055,0.068 0.11,0.068 0.034,0 0.066,-0.008 0.094,-0.031 0.059,-0.054 0.052,-0.18 0.235,-0.207 -0.01,0.02 -0.014,0.044 -0.014,0.064 0,0.037 0.021,0.067 0.058,0.067 0.042,0 0.071,-0.02 0.11,-0.085 0.048,-0.083 0.1,-0.107 0.182,-0.117 -0.011,0.02 -0.017,0.047 -0.017,0.07 0,0.038 0.022,0.063 0.057,0.063 0.022,0 0.061,-0.008 0.094,-0.065 0.053,-0.09 0.092,-0.132 0.184,-0.142 -0.027,0.052 -0.006,0.122 0.063,0.122 0.07,0 0.245,-0.061 0.376,-0.115 -0.004,-0.336 0.214,-0.696 0.538,-0.915 -0.012,0.064 0.022,0.1 0.069,0.1 0.131,0 0.198,-0.31 0.492,-0.45 -0.015,0.059 0.017,0.097 0.059,0.097 0.035,0 0.081,-0.022 0.107,-0.036 0.263,-0.142 0.543,-0.323 0.678,-0.44 0.274,0.083 0.721,0.351 1.012,0.651 -0.18,0.055 -0.677,0.428 -0.849,0.606 -0.312,0.321 -0.395,0.657 -0.395,0.906 0,0.083 0.012,0.161 0.032,0.223 0.091,-0.054 0.22,-0.046 0.298,0.027 -0.142,0.112 -0.12,0.331 -0.073,0.41 0.079,-0.065 0.222,-0.045 0.295,0.02 -0.108,0.067 -0.167,0.244 -0.111,0.395 0.06,-0.063 0.203,-0.067 0.288,0.003 -0.114,0.096 -0.172,0.248 -0.14,0.427 C 1.133,-0.21 1.233,-0.22 1.308,-0.19 1.262,-0.093 1.259,0.066 1.245,0.172 1.227,0.318 1.185,0.482 1.137,0.571 0.98,0.705 0.504,0.897 0.206,0.897 0.166,0.897 0.127,0.891 0.093,0.884 0.011,0.865 -0.047,0.836 -0.051,0.821 -0.095,0.751 -0.205,0.736 -0.303,0.71 -0.374,0.69 -0.564,0.639 -0.636,0.597 m 0.93,0.049 C 0.271,0.648 0.248,0.651 0.225,0.655 0.203,0.659 0.194,0.67 0.189,0.676 0.183,0.683 0.163,0.707 0.111,0.711 0.019,0.716 -0.026,0.647 -0.032,0.605 -0.036,0.573 -0.028,0.541 -0.008,0.517 0.01,0.497 0.033,0.485 0.059,0.482 0.078,0.481 0.098,0.483 0.118,0.491 L 0.12,0.493 c 0.037,0.02 0.057,0.052 0.069,0.085 0.005,0.014 0.049,0.032 0.098,0.034 0.009,0 0.016,0.006 0.018,0.015 0.003,0.01 -0.002,0.019 -0.011,0.019 M 1.259,1.335 C 1.28,1.31 1.293,1.278 1.293,1.242 1.295,1.157 1.228,1.086 1.143,1.084 1.058,1.082 0.987,1.149 0.985,1.234 0.982,1.313 1.04,1.379 1.115,1.39 L 0.939,1.663 0.637,1.532 C 0.668,1.505 0.689,1.466 0.69,1.421 0.692,1.336 0.625,1.265 0.539,1.262 0.454,1.261 0.383,1.328 0.38,1.413 0.379,1.479 0.419,1.536 0.476,1.559 0.386,1.656 0.192,1.801 0.005,1.863 0.149,1.602 0.228,1.278 0.222,1.009 0.416,1.022 0.948,0.858 1.15,0.706 1.314,0.949 1.56,1.18 1.835,1.276 1.703,1.321 1.447,1.362 1.259,1.335 m -5.016,-2.356 c 0.004,1.91 1.544,3.456 3.44,3.454 1.898,-0.004 3.432,-1.556 3.429,-3.466 -0.003,-1.91 -1.544,-3.456 -3.44,-3.453 -1.897,0.003 -3.432,1.594 -3.429,3.465 m -12.434,1.413 c 0.016,0.015 0.042,0.04 0.067,0.053 0.053,0.03 0.125,0.045 0.173,0.053 0.023,-0.035 0.014,-0.095 -0.026,-0.14 -0.042,-0.048 -0.088,-0.026 -0.132,-0.006 -0.03,0.014 -0.054,0.013 -0.066,0.014 -0.017,-0.001 -0.026,0.015 -0.016,0.026 m 2.551,0.015 c 0.008,-0.104 -0.045,-0.278 -0.085,-0.325 -0.037,-0.011 -0.134,-0.021 -0.207,-0.025 -0.045,-0.001 -0.058,-0.008 -0.086,-0.055 -0.085,-0.145 -0.161,-0.279 -0.251,-0.453 -0.019,-0.203 -0.019,-0.4 -0.035,-0.64 -0.006,-0.085 0.006,-0.198 -0.051,-0.294 -0.075,-0.096 -0.157,-0.165 -0.223,-0.211 -0.014,-0.009 -0.033,-0.033 0.024,-0.016 0.034,0.01 0.193,0.09 0.227,0.101 0.112,0.037 0.242,0.175 0.42,0.002 0.087,-0.084 0.217,-0.162 0.373,-0.268 0.058,-0.038 0.088,-0.031 0.165,-0.099 0.063,-0.056 0.092,-0.177 0.129,-0.239 0.095,-0.164 0.105,-0.265 0.104,-0.302 -0.062,-0.034 -0.286,-0.036 -0.376,-0.009 -0.031,0.056 -0.028,0.141 -0.047,0.184 -0.031,0.08 -0.06,0.119 -0.102,0.149 -0.068,0.048 -0.12,0.104 -0.191,0.144 -0.173,0.096 -0.195,0.121 -0.323,0.058 -0.116,-0.057 -0.298,-0.221 -0.488,-0.321 -0.15,-0.073 -0.561,0.002 -0.674,0.104 0.038,-0.112 0.269,-0.238 0.441,-0.32 -0.024,-0.06 -0.086,-0.377 -0.212,-0.561 -0.008,0.045 -0.035,0.078 -0.075,0.078 -0.116,0 -0.094,-0.247 -0.205,-0.374 -0.008,0.039 -0.034,0.08 -0.08,0.08 -0.108,0 -0.096,-0.233 -0.218,-0.355 -0.014,0.051 -0.043,0.088 -0.093,0.088 -0.048,0 -0.093,-0.047 -0.136,-0.092 -0.147,-0.158 -0.216,-0.249 -0.356,-0.396 -0.471,0.028 -1.166,0.354 -1.413,0.651 0.446,0.477 0.847,0.956 1.043,1.094 0.094,0.281 0.375,0.876 0.478,1.151 -0.013,0.028 -0.027,0.052 -0.042,0.079 -0.069,-0.04 -0.152,-0.049 -0.187,-0.03 0.03,0.077 0.032,0.199 -0.001,0.293 -0.05,-0.029 -0.121,-0.045 -0.172,-0.024 0.031,0.092 0.037,0.2 0.007,0.288 0,0 0,0.001 -0.001,0.002 -0.065,-0.028 -0.124,-0.038 -0.17,-0.021 0.026,0.104 0.051,0.202 0.02,0.332 -0.003,0.01 -0.008,0.019 -0.01,0.029 -0.085,-0.044 -0.385,-0.098 -0.453,-0.071 -0.043,0.035 0.214,0.295 0.429,0.512 -0.203,-0.09 -0.469,-0.186 -0.875,-0.267 -0.231,-0.046 -0.715,-0.132 -1.06,-0.07 -0.057,0.01 -0.044,0.086 0.011,0.086 0.181,0.001 0.426,0.01 0.604,0.055 0.048,0.011 0.124,0.052 -0.014,0.076 -0.147,0.026 -0.415,0.07 -0.548,0.114 -0.048,0.016 -0.022,0.073 0.018,0.07 0.164,-0.013 0.359,-0.047 0.5,-0.053 0.082,-0.002 0.118,0.008 0.056,0.061 -0.037,0.032 -0.153,0.106 -0.271,0.176 -0.026,0.015 -0.022,0.051 0.01,0.056 0.093,0.016 0.459,-0.213 0.704,-0.28 0.055,-0.015 0.102,-0.025 0.148,-0.017 0.049,0.009 0.057,0.038 0.053,0.059 -0.01,0.058 -0.252,0.173 -0.369,0.251 -0.049,0.032 0.002,0.069 0.053,0.054 0.131,-0.038 0.429,-0.195 0.565,-0.212 0.108,-0.013 0.147,0.017 0.141,0.047 -0.013,0.073 -0.426,0.267 -0.525,0.339 -0.023,0.018 0.01,0.051 0.038,0.047 0.211,-0.026 0.623,-0.31 0.804,-0.278 0.02,0.003 0.046,0.018 0.041,0.045 -0.015,0.081 -0.358,0.259 -0.442,0.317 -0.042,0.029 0.007,0.058 0.066,0.045 0.126,-0.029 0.321,-0.128 0.438,-0.187 0.056,-0.028 0.102,-0.039 0.159,-0.029 0.076,0.014 0.141,0.092 0.11,0.254 -0.031,0.166 -0.185,0.232 -0.293,0.261 -0.12,0.033 -0.031,0.089 0.072,0.069 0.197,-0.037 0.341,-0.13 0.375,-0.305 0.005,-0.028 0.007,-0.068 0.008,-0.106 0.004,-0.096 0.072,-0.061 0.129,0.019 0.109,0.152 0.132,0.305 0.114,0.408 -0.033,0.179 -0.285,0.251 -0.285,0.294 0,0.014 0.015,0.026 0.029,0.028 0.097,0.018 0.363,-0.096 0.402,-0.311 0.02,-0.113 -0.001,-0.174 -0.021,-0.284 -0.004,-0.023 0.012,-0.043 0.048,-0.006 0.128,0.128 0.233,0.357 0.196,0.564 -0.039,0.222 -0.266,0.298 -0.273,0.336 -10e-4,0.01 0.017,0.024 0.034,0.027 0.093,0.016 0.344,-0.131 0.393,-0.376 0.043,-0.217 -0.059,-0.666 -0.732,-1.025 0.283,0.063 0.36,0.053 0.391,0.019 0.325,0.087 0.531,0.153 0.616,0.134 0.09,-0.139 -0.101,-0.195 -0.104,-0.299 0.003,-0.1 0.226,0.067 0.187,-0.092 -0.068,-0.124 -0.155,-0.133 -0.255,-0.171 -0.052,-0.035 -0.252,-0.178 -0.36,-0.267 0.324,-0.226 0.656,-0.57 0.678,-0.586 0.02,-0.05 0.1,-0.192 0.19,-0.406 0.003,-0.003 0.005,-0.008 0.007,-0.012 0.047,0.138 0.121,0.371 0.153,0.487 0.029,0.101 0.019,0.135 0.052,0.195 0.027,0.051 0.118,0.135 0.199,0.256 0.073,0.107 0.19,0.273 0.23,0.337 0.069,0.104 0.137,0.083 0.262,0.117 0.047,0.013 0.19,0.021 0.246,0.018 m -2.225,-4.886 c 1.896,-0.003 3.437,1.543 3.44,3.453 0.003,1.911 -1.532,3.463 -3.429,3.466 -1.896,0.003 -3.437,-1.543 -3.441,-3.453 -0.003,-1.911 1.533,-3.463 3.43,-3.466 m 16.691,-3.906 -8.91,7.264 -8.909,-7.263 c -4.598,5.338 -4.565,11.499 -4.552,14.04 l 0.001,4.182 0.017,0 13.443,-10.959 13.443,10.959 0.018,0 0,-4.182 C 5.392,3.115 5.425,-3.046 0.826,-8.385 M -5.447,6.428 c 0.125,0.097 0.209,0.2 0.209,0.377 0,0.203 -0.136,0.333 -0.292,0.333 -0.18,0 -0.277,-0.143 -0.277,-0.295 0,-0.16 0.111,-0.269 0.36,-0.415 m 0.172,-0.67 c 0,0.157 -0.074,0.258 -0.4,0.455 -0.143,-0.075 -0.22,-0.225 -0.22,-0.364 0,-0.254 0.18,-0.377 0.323,-0.377 0.204,0 0.297,0.149 0.297,0.286 M -5.75,6.254 c -0.188,0.112 -0.318,0.274 -0.318,0.483 0,0.179 0.13,0.5 0.553,0.5 0.338,0 0.483,-0.213 0.483,-0.402 0,-0.198 -0.07,-0.315 -0.353,-0.445 0.275,-0.139 0.397,-0.288 0.397,-0.502 0,-0.296 -0.234,-0.514 -0.589,-0.514 -0.32,0 -0.524,0.221 -0.524,0.45 0,0.253 0.199,0.378 0.351,0.43 m -1.806,-0.055 0.079,0 0.065,0.169 0.75,0 -0.731,-1.498 0.135,-0.037 0.913,1.793 -0.022,0.024 -1.12,0 -0.069,-0.451 z m 0.943,1.973 c 0.599,0 1.353,-0.112 2.146,-0.113 l 0,-3.996 c -1.441,0.145 -3.135,0.26 -3.508,-0.439 l 0,0.21 c 0.337,0.63 1.853,0.575 3.288,0.436 l 0,0.115 C -6.135,4.523 -7.521,4.582 -7.975,4.026 l 0,3.591 c 0.09,0.439 0.609,0.555 1.362,0.555 M -9.186,6.428 c 0.125,0.097 0.209,0.2 0.209,0.377 0,0.203 -0.135,0.333 -0.293,0.333 -0.179,0 -0.277,-0.143 -0.277,-0.295 0,-0.16 0.111,-0.269 0.361,-0.415 m 0.172,-0.67 c 0,0.157 -0.074,0.258 -0.401,0.455 -0.144,-0.075 -0.219,-0.225 -0.219,-0.364 0,-0.254 0.179,-0.377 0.324,-0.377 0.203,0 0.296,0.149 0.296,0.286 M -9.49,6.254 c -0.186,0.112 -0.317,0.274 -0.317,0.483 0,0.179 0.131,0.5 0.553,0.5 0.337,0 0.483,-0.213 0.483,-0.402 0,-0.198 -0.069,-0.315 -0.352,-0.445 0.273,-0.139 0.396,-0.288 0.396,-0.502 0,-0.296 -0.233,-0.514 -0.589,-0.514 -0.321,0 -0.524,0.221 -0.524,0.45 0,0.253 0.199,0.378 0.35,0.43 m -1.717,-0.847 c 0.171,0.003 0.351,0.008 0.492,0.008 0.185,0 0.339,-0.005 0.491,-0.008 l 0,0.082 -0.078,0 c -0.242,0 -0.26,0.024 -0.26,0.184 l 0,0.693 c 0,0.19 0.029,0.203 0.19,0.203 l 0.148,0 0,0.081 c -0.157,-0.002 -0.323,-0.008 -0.491,-0.008 -0.154,0 -0.326,0.006 -0.492,0.008 l 0,-0.081 0.15,0 c 0.16,0 0.19,-0.013 0.19,-0.203 l 0,-0.693 c 0,-0.16 -0.019,-0.184 -0.261,-0.184 l -0.079,0 0,-0.082 z m 3.017,-1.573 0,-0.21 c -0.372,0.699 -2.067,0.584 -3.508,0.439 l 0,3.996 c 0.777,0.007 1.542,0.113 2.139,0.113 0.758,0 1.278,-0.115 1.369,-0.555 l 0,-3.591 c -0.462,0.549 -1.84,0.497 -3.282,0.359 l 0,-0.115 c 1.428,0.137 2.935,0.184 3.282,-0.436 M -8.515,3.102 c -0.042,0.071 -0.206,0.442 -1.118,0.442 l -2.666,0 0,4.309 0.196,0 0,-4.112 2.437,0 c 0.185,0 0.346,-0.011 0.484,-0.033 C -8.69,3.63 -8.485,3.435 -8.39,3.297 l 0.625,-0.001 c 0.092,0.139 0.289,0.334 0.777,0.412 0.137,0.022 0.296,0.033 0.482,0.033 l 2.444,0 0,4.098 0.196,0 0,-4.295 -2.673,0 c -0.911,0 -1.063,-0.374 -1.095,-0.442 l -0.881,0 z m 12.344,6.738 -23.81,0 -1.522,1.597 3.039,-1.011 c -0.25,0.757 -0.945,1.019 -1.393,1.666 -0.267,0.384 -0.357,0.763 -0.328,1.157 0.082,-0.141 0.229,-0.333 0.458,-0.492 0.22,-0.151 0.515,-0.269 0.917,-0.356 0.717,-0.155 1.087,-0.382 1.403,-0.673 l -1.555,2.781 2.678,-1.727 c -0.111,0.797 -0.661,1.209 -0.934,1.945 -0.162,0.439 -0.158,0.832 -0.031,1.205 0.044,-0.155 0.137,-0.379 0.321,-0.589 0.174,-0.201 0.43,-0.389 0.798,-0.573 0.679,-0.339 0.981,-0.661 1.217,-1.037 l -0.825,3.118 2.154,-2.325 c 0.086,0.782 -0.337,1.322 -0.419,2.098 -0.048,0.465 0.05,0.848 0.265,1.179 0.004,-0.162 0.041,-0.401 0.165,-0.65 0.119,-0.238 0.321,-0.484 0.632,-0.753 0.593,-0.517 0.799,-0.913 0.934,-1.354 l -0.023,3.273 1.499,-2.774 c 0.293,0.704 -0.016,1.35 0.098,2.118 0.068,0.462 0.27,0.813 0.562,1.079 -0.037,-0.157 -0.063,-0.398 -0.003,-0.67 0.056,-0.26 0.19,-0.549 0.425,-0.887 0.457,-0.662 0.551,-1.101 0.568,-1.573 l 0.006,10e-4 0.798,3.206 0.766,-3.076 c 0.462,0.634 0.344,1.353 0.649,2.073 0.182,0.43 0.462,0.686 0.811,0.871 -0.076,-0.143 -0.161,-0.37 -0.172,-0.649 -0.01,-0.266 0.048,-0.578 0.189,-0.964 0.27,-0.735 0.255,-1.178 0.16,-1.627 l 1.552,2.872 -0.022,-3.157 c 0.602,0.474 0.645,1.224 1.116,1.841 0.284,0.371 0.625,0.548 1.01,0.641 -0.11,-0.121 -0.247,-0.319 -0.328,-0.586 -0.076,-0.256 -0.098,-0.573 -0.057,-0.982 0.081,-0.798 -0.048,-1.228 -0.259,-1.648 l 0.002,0 2.244,2.423 -0.804,-3.043 c 0.675,0.322 0.919,0.968 1.524,1.445 0.366,0.29 0.739,0.432 1.132,0.426 C 1.302,15.589 1.119,15.431 0.974,15.192 0.837,14.964 0.737,14.663 0.676,14.256 0.556,13.466 0.327,13.08 0.02,12.728 l 0.013,-0.01 2.778,1.791 -1.535,-2.742 c 0.748,0.106 1.109,0.704 1.809,1.013 0.427,0.189 0.834,0.238 1.215,0.135 C 4.147,12.861 3.93,12.753 3.731,12.558 3.542,12.371 3.37,12.103 3.209,11.725 2.897,10.994 2.582,10.679 2.199,10.414 L 2.215,10.394 5.351,11.437 3.829,9.84 Z M -4.89,-8.688 c -0.066,-0.02 -0.145,-0.049 -0.207,-0.08 -0.042,-0.019 -0.066,-0.033 -0.071,-0.066 -0.004,-0.023 0.022,-0.057 0.036,-0.073 -0.038,-0.14 -0.369,-0.122 -0.479,-0.161 -0.093,-0.032 -0.202,-0.135 -0.264,-0.201 -0.063,-0.069 -0.041,-0.052 -0.142,-0.072 -0.178,-0.037 -0.139,-0.2 -0.084,-0.33 0.053,-0.13 0.147,-0.234 0.265,-0.311 0.042,-0.028 0.232,-0.102 0.335,-0.102 -0.099,-0.106 -0.237,-0.08 -0.362,-0.132 -0.07,-0.028 -0.132,-0.068 -0.209,-0.085 -0.103,-0.022 -0.155,-0.015 -0.241,-10e-4 -0.134,0.026 -0.24,0.02 -0.352,0.008 -0.084,-0.009 -0.156,0.001 -0.229,0.042 -0.032,0.018 -0.096,0.065 -0.127,0.07 -0.103,0.016 -0.021,-0.134 0.001,-0.187 -0.14,-0.132 -0.456,0.051 -0.582,0.128 -0.11,0.067 -0.168,0.222 -0.294,0.263 -0.01,-0.134 -0.003,-0.267 0.002,-0.401 0.016,-0.407 0.025,-0.814 0.038,-1.22 0.007,-0.239 0.013,-0.478 0.021,-0.715 l -0.448,0 0.053,2.353 c -0.143,-0.009 -0.199,-0.141 -0.315,-0.192 -0.073,-0.031 -0.148,-0.016 -0.216,-0.059 -0.072,-0.045 -0.1,-0.105 -0.183,-0.144 -0.07,-0.031 -0.156,-0.043 -0.233,-0.041 -0.096,0 -0.202,0.018 -0.255,0.072 0.047,0.086 0,0.175 -0.06,0.207 -0.07,0.036 -0.166,-0.018 -0.225,-0.033 -0.313,-0.078 -0.678,0.114 -0.962,0.22 0,0 0.686,0.116 0.686,0.516 0,0.112 -0.052,0.202 -0.136,0.273 -0.08,0.066 -0.231,0.144 -0.336,0.159 -0.171,0.025 -0.287,-0.02 -0.392,0.022 0.015,0.055 -0.077,0.131 -0.149,0.182 -0.069,0.048 -0.153,0.073 -0.228,0.111 -0.137,0.071 -0.342,0.199 -0.285,0.378 0.11,-0.056 0.217,-0.069 0.316,-0.016 0.079,0.043 0.107,0.104 0.107,0.198 -0.002,0.126 -0.14,0.21 -0.19,0.305 -0.039,0.076 -0.074,0.149 -0.145,0.204 -0.065,0.05 -0.172,0.067 -0.175,0.163 0.132,-0.052 0.168,0.064 0.09,0.151 -0.087,0.097 -0.202,0.143 -0.268,0.265 -0.057,0.108 -0.1,0.235 -0.102,0.36 -0.001,0.036 0.006,0.142 0.058,0.151 0.049,0.01 0.066,-0.055 0.086,-0.086 0.082,-0.12 0.202,-0.178 0.324,-0.239 0.152,-0.076 0.211,-0.117 0.381,-0.148 0.331,-0.059 0.541,-0.01 0.733,0.166 0.033,0.031 0.115,0.089 0.155,0.093 0.066,-0.095 0.241,-0.277 0.412,-0.327 0.127,-0.035 0.272,-0.216 0.338,-0.274 0.228,-0.199 0.369,-0.086 0.368,0.105 -10e-4,0.16 -0.06,0.369 -0.095,0.521 -0.055,0.249 -0.103,0.37 -0.138,0.628 -0.02,0.157 -0.107,0.291 -0.166,0.4 -0.058,0.111 -0.141,0.395 0.067,0.295 0.085,-0.041 0.214,-0.118 0.318,-0.104 0.243,0.034 0.273,0.299 0.319,0.497 0.026,0.103 0.026,0.187 0.064,0.29 0.021,0.06 0.05,0.093 0.081,0.095 0.01,-0.031 0.044,-0.086 0.096,-0.086 0.094,0 0.173,0.161 0.197,0.256 0.019,0.081 0.036,0.177 0.059,0.249 0.043,0.124 0.053,0.27 0.119,0.407 0.025,-0.091 0.066,-0.255 0.088,-0.312 0.056,-0.146 0.107,-0.292 0.193,-0.414 0.074,-0.103 0.167,-0.135 0.283,-0.075 0.057,-0.137 0.057,-0.589 0.176,-0.8 0.07,-0.125 0.157,-0.17 0.263,-0.17 0.095,0 0.163,0.029 0.232,0.07 0.083,0.049 0.175,0.113 0.237,0.113 0.028,0 0.045,-0.014 0.045,-0.041 0,-0.096 -0.147,-0.351 -0.166,-0.405 -0.046,-0.124 -0.116,-0.262 -0.154,-0.386 -0.03,-0.104 -0.061,-0.235 -0.083,-0.344 -0.025,-0.122 -0.046,-0.263 -0.054,-0.455 -0.007,-0.115 0.002,-0.319 0.088,-0.38 0.125,-0.085 0.283,0.083 0.385,0.162 0.121,0.094 0.225,0.186 0.317,0.311 0.069,0.093 0.203,0.335 0.332,0.323 -0.001,-0.097 0.137,-0.234 0.343,-0.265 0.126,-0.019 0.229,0.006 0.303,0.061 0.096,0.07 0.102,0.066 0.211,0.026 0.235,-0.089 0.622,0.217 0.761,0.327 0.047,-0.05 0.004,-0.141 -0.057,-0.233 -0.112,-0.167 -0.237,-0.221 -0.239,-0.346 -0.003,-0.11 -0.136,-0.315 -0.127,-0.438 -0.041,-0.07 -0.17,-0.148 -0.229,-0.196 -0.171,-0.146 -0.276,-0.313 -0.213,-0.542 0.053,-0.198 0.216,-0.293 0.369,-0.293 0.154,0 0.253,0.103 0.304,0.078 0.03,-0.019 -0.044,-0.113 -0.075,-0.138 -0.084,-0.073 -0.218,-0.126 -0.313,-0.155 M 6.519,5.632 6.517,18.722 c -3.387,1.198 -8.704,1.972 -14.7,1.972 -5.88,0 -11.115,-0.77 -14.501,-1.972 l -0.002,-13.28 c 0,-1.957 -0.088,-5.422 1.691,-9.571 2.21,-5.151 6.489,-9.024 12.594,-11.452 l 0.317,-0.13 0.314,0.129 c 6.11,2.429 10.388,6.302 12.598,11.453 1.781,4.149 1.691,7.884 1.691,9.761" /></g></g></g></g></svg>